<?xml version="1.0" standalone="no"?>
<!DOCTYPE svg PUBLIC "-//W3C//DTD SVG 20010904//EN"
 "http://www.w3.org/TR/2001/REC-SVG-20010904/DTD/svg10.dtd">
<svg version="1.0" xmlns="http://www.w3.org/2000/svg"
 width="3096.000000pt" height="864.000000pt" viewBox="0 0 3096.000000 864.000000"
 preserveAspectRatio="xMidYMid meet">
<metadata>
</metadata>
<g transform="translate(0.000000,864.000000) scale(0.100000,-0.100000)"
fill="#E0E5EC" stroke="none">
<path d="M18850 7863 c0 -16 -6 -23 -20 -23 -11 0 -20 -3 -21 -7 -4 -45 -3
-83 4 -83 4 0 7 -6 7 -14 0 -8 10 -16 23 -18 38 -5 35 -50 -7 -83 -34 -27 -47
-55 -26 -55 6 0 10 -9 10 -20 0 -11 -7 -20 -15 -20 -8 0 -15 7 -15 15 0 8 -9
15 -20 15 -16 0 -20 7 -20 30 0 20 -5 30 -15 30 -8 0 -15 9 -15 20 0 11 5 20
10 20 6 0 10 4 10 9 0 9 -40 7 -78 -5 -16 -5 -21 -11 -16 -23 16 -39 15 -53
-1 -71 -10 -11 -24 -20 -32 -20 -7 0 -13 -4 -13 -9 0 -15 -83 -11 -100 4 -8 8
-42 15 -75 17 -56 3 -60 5 -70 33 -11 33 -28 55 -43 55 -6 0 -24 8 -40 17 -28
16 -32 16 -49 1 -10 -8 -29 -19 -43 -22 -58 -16 -70 -28 -70 -67 0 -48 -33
-74 -82 -66 -77 14 -98 20 -109 33 -16 20 -46 17 -69 -6 -11 -11 -29 -20 -40
-20 -16 0 -20 7 -20 34 0 34 -18 47 -60 45 -8 -1 -4 -4 10 -8 29 -8 43 -61 17
-61 -16 0 -31 -53 -16 -58 5 -2 9 -11 9 -19 0 -10 -6 -14 -19 -10 -16 4 -21
-2 -26 -24 -5 -22 -12 -29 -30 -29 -13 0 -27 -4 -30 -10 -3 -5 -45 -10 -92
-10 -66 0 -91 4 -105 17 -11 9 -18 11 -18 5 0 -7 -6 -12 -14 -12 -9 0 -17 15
-21 40 -7 43 -24 53 -32 20 -3 -13 -14 -20 -29 -20 -14 0 -24 -6 -24 -14 0
-17 -60 -27 -99 -16 -17 4 -40 18 -52 29 -19 18 -25 19 -38 7 -9 -7 -36 -16
-60 -20 -24 -4 -53 -13 -64 -21 l-21 -15 22 0 c13 0 22 -6 22 -15 0 -9 -9 -15
-24 -15 -13 0 -26 -7 -30 -15 -4 -10 -19 -15 -49 -15 -27 0 -49 6 -57 15 -7 8
-21 15 -31 15 -11 0 -19 5 -19 10 0 6 -13 10 -30 10 -19 0 -30 -5 -30 -14 0
-10 -12 -14 -37 -13 -21 0 -72 -3 -113 -6 -41 -4 -104 -9 -140 -12 -93 -6
-140 -15 -140 -26 0 -14 -113 -1 -122 14 -4 7 -8 28 -8 47 l0 35 -15 -25 c-38
-66 -45 -100 -20 -100 8 0 15 -7 15 -16 0 -9 -7 -14 -17 -13 -10 2 -28 -1 -41
-5 -16 -5 -29 -3 -40 7 -21 18 -70 28 -78 15 -12 -19 -53 -26 -108 -19 -32 4
-59 4 -62 -1 -3 -5 -20 -6 -37 -2 -34 7 -162 15 -237 14 -25 -1 -56 -8 -69
-17 -35 -22 -150 -22 -167 1 -12 16 -17 16 -91 1 -80 -18 -141 -24 -273 -28
-41 -1 -81 -6 -88 -10 -34 -23 -102 24 -102 70 0 13 -3 14 -12 5 -7 -7 -22
-12 -35 -12 -13 0 -23 -4 -23 -10 0 -5 -18 -13 -40 -16 -24 -4 -40 -12 -40
-20 0 -9 -10 -14 -27 -14 -16 0 -42 -2 -60 -6 -29 -5 -33 -3 -39 20 -5 20 -12
26 -33 26 -15 0 -32 5 -38 11 -13 13 -53 -8 -53 -28 0 -7 -12 -19 -27 -27 -20
-11 -23 -15 -10 -16 21 0 23 -30 2 -30 -8 0 -15 5 -15 10 0 6 -20 10 -43 10
-24 0 -47 3 -51 7 -4 4 -23 6 -43 4 -22 -2 -39 2 -44 10 -5 8 -24 13 -48 12
-22 -1 -43 3 -47 8 -4 7 -10 7 -18 0 -7 -6 -32 -7 -61 -3 -48 7 -50 9 -60 47
-5 22 -15 45 -21 52 -17 17 -64 28 -64 14 0 -6 -7 -11 -15 -11 -8 0 -15 7 -15
15 0 8 7 15 15 15 8 0 15 5 15 10 0 25 -79 -1 -99 -32 -9 -14 -8 -18 4 -18 8
0 15 5 15 11 0 18 45 5 48 -13 3 -13 -3 -18 -21 -18 -14 0 -35 -9 -48 -19
l-24 -20 23 6 c15 4 22 1 22 -10 0 -10 6 -13 20 -10 11 3 20 12 20 19 0 10 13
14 40 14 22 0 40 5 40 10 0 6 7 10 15 10 16 0 19 -9 9 -34 -4 -12 -20 -16 -55
-16 -35 0 -49 -4 -49 -14 0 -7 -10 -16 -22 -20 -33 -8 -36 -8 -41 12 -4 13 -5
11 -6 -5 -2 -35 -31 -29 -31 6 0 25 -5 30 -32 36 -18 4 -43 13 -55 21 -13 8
-23 10 -23 4 0 -5 -6 -10 -14 -10 -8 0 -20 -13 -28 -30 -10 -23 -19 -30 -40
-30 -16 0 -28 -4 -28 -10 0 -5 -7 -10 -15 -10 -8 0 -15 5 -15 10 0 6 -18 10
-40 10 -40 0 -90 -17 -90 -31 0 -4 -16 -7 -35 -7 -22 0 -35 5 -35 13 0 7 -6
15 -12 18 -10 3 -10 11 1 38 23 60 25 81 7 91 -9 5 -16 22 -16 38 0 17 -5 30
-10 30 -6 0 -8 -11 -4 -25 3 -14 2 -25 -3 -25 -5 0 -17 -16 -26 -35 -9 -19
-23 -35 -32 -35 -11 0 -15 -11 -15 -39 0 -32 -5 -43 -27 -58 -45 -30 -82 -47
-89 -40 -4 4 -12 -1 -19 -10 -10 -14 -17 -15 -42 -4 -16 6 -55 12 -88 12 -37
1 -64 6 -73 16 -23 23 -65 12 -184 -48 -29 -15 -38 -10 -39 19 0 15 -3 21 -6
15 -2 -7 -17 -13 -32 -13 -15 0 -33 -8 -41 -20 -8 -11 -35 -24 -67 -30 -29 -6
-53 -16 -53 -21 0 -14 -22 -11 -41 7 -15 14 -19 13 -39 -15 -12 -17 -30 -31
-40 -31 -34 0 -50 -12 -50 -37 0 -45 -18 -65 -51 -58 -18 4 -29 3 -29 -4 0
-19 -66 -12 -108 10 -27 15 -42 30 -45 48 -5 23 -10 26 -47 27 -23 0 -44 5
-48 10 -4 6 -18 14 -32 17 -19 5 -32 0 -55 -22 -34 -31 -118 -66 -140 -57 -9
3 -20 17 -27 31 -6 14 -20 25 -31 25 -16 0 -19 6 -15 35 3 28 0 35 -17 37 -12
2 -21 12 -23 26 -2 12 -9 22 -16 22 -25 0 -37 124 -13 133 7 3 5 6 -5 6 -11 1
-18 9 -18 21 0 15 -7 20 -25 20 -16 0 -25 6 -25 15 0 8 6 15 14 15 7 0 16 11
18 24 5 22 2 24 -28 19 -25 -4 -35 -1 -40 10 -8 22 -34 9 -34 -17 0 -34 -12
-43 -67 -51 -45 -6 -52 -4 -57 13 -4 10 -4 26 -1 34 12 32 -65 40 -97 11 -13
-12 -15 -20 -8 -34 14 -26 13 -89 -2 -89 -10 0 -10 -2 -2 -8 7 -4 14 -18 15
-32 3 -19 11 -26 31 -28 26 -3 27 -5 22 -46 -5 -30 -2 -47 8 -57 34 -33 27
-199 -8 -199 -9 0 -14 -11 -14 -30 0 -20 -5 -30 -15 -30 -11 0 -15 11 -15 40
0 27 4 40 14 40 16 0 27 32 16 49 -5 9 -14 9 -36 1 -15 -6 -62 -13 -102 -14
-68 -3 -73 -2 -69 15 4 14 0 19 -13 19 -12 0 -21 -10 -25 -30 -4 -17 -13 -30
-22 -30 -11 0 -14 6 -9 26 9 33 -1 64 -20 64 -8 0 -14 5 -14 10 0 6 -16 10
-35 10 -19 0 -35 4 -35 9 0 18 -28 19 -33 2 -3 -14 0 -17 14 -14 13 4 19 0 19
-11 0 -9 -4 -16 -9 -16 -4 0 -6 -11 -3 -25 3 -18 0 -25 -12 -25 -9 0 -16 3
-16 8 0 4 -4 13 -9 20 -7 12 -14 11 -38 -2 -17 -8 -33 -22 -36 -31 -7 -16 -47
-21 -47 -6 0 12 -55 31 -89 31 -14 0 -39 7 -55 15 -15 8 -35 15 -42 15 -8 0
-14 10 -14 25 0 25 -1 25 -55 19 -46 -6 -55 -4 -55 9 0 24 -14 27 -45 11 -16
-8 -34 -13 -40 -10 -6 2 -42 -16 -81 -40 -38 -24 -77 -44 -88 -44 -10 0 -27
-11 -37 -24 -32 -41 -109 -40 -109 2 0 14 -23 21 -53 15 -20 -4 -27 -1 -27 10
0 10 -17 18 -58 25 -73 13 -106 6 -123 -24 -7 -13 -18 -24 -25 -24 -7 0 -14
-10 -16 -22 -2 -15 -11 -24 -27 -26 -20 -3 -23 0 -19 16 4 15 2 19 -9 15 -8
-3 -25 0 -37 6 -12 7 -38 11 -57 9 -29 -3 -36 -8 -45 -38 -14 -41 -24 -46 -64
-28 -24 10 -30 19 -30 45 l0 32 -37 -13 c-23 -8 -39 -21 -42 -32 -4 -22 -30
-43 -53 -44 -9 0 -30 11 -46 25 -17 14 -41 25 -55 25 -14 0 -27 7 -31 15 -6
18 -81 21 -92 4 -3 -6 -15 -8 -26 -6 -11 3 -21 0 -25 -9 -3 -8 -18 -14 -33
-14 -16 0 -32 -4 -35 -10 -10 -16 -45 -12 -45 5 0 9 -9 15 -24 15 -13 0 -26
-7 -30 -15 -4 -10 1 -15 14 -15 11 0 20 -7 20 -15 0 -11 -12 -15 -50 -15 -38
0 -50 -4 -50 -15 0 -21 -33 -19 -64 6 -14 11 -26 16 -26 10 0 -6 -20 -9 -47
-7 -46 3 -73 -10 -73 -33 0 -14 -30 -14 -86 0 -35 9 -47 18 -60 44 -8 18 -14
39 -13 47 1 7 -3 26 -9 41 -7 16 -12 37 -12 47 0 25 -27 38 -65 31 -29 -6 -30
-9 -40 -75 -9 -59 -13 -70 -34 -78 -14 -5 -31 -6 -38 -4 -8 3 -16 -1 -19 -9
-4 -8 -14 -15 -24 -15 -18 0 -50 -39 -50 -62 0 -8 -10 -22 -22 -32 -27 -23
-49 -12 -60 32 -5 17 -17 33 -28 37 -20 7 -29 28 -33 80 -1 22 4 32 21 40 12
5 22 15 22 21 0 14 -83 -2 -88 -17 -2 -5 -16 -9 -32 -9 -20 0 -31 -6 -35 -20
-3 -11 -11 -20 -16 -20 -5 0 -9 -7 -9 -15 0 -8 -7 -15 -15 -15 -18 0 -20 36
-2 43 6 3 2 6 -11 6 -12 1 -30 -3 -40 -8 -9 -6 -29 -12 -44 -15 -18 -4 -28
-13 -30 -29 -2 -16 -11 -23 -31 -25 -15 -2 -27 -9 -27 -17 0 -7 -14 -16 -30
-20 -17 -4 -30 -11 -30 -17 0 -6 -19 -9 -45 -6 -25 2 -46 -1 -48 -6 -1 -4 -31
-5 -65 -1 -48 5 -62 11 -63 23 0 12 -3 10 -9 -5 -5 -13 -17 -23 -27 -23 -10 0
-28 -3 -40 -6 -15 -4 -23 -2 -23 6 0 6 -7 18 -15 26 -13 14 -15 14 -15 0 0 -8
5 -18 10 -21 15 -9 12 -35 -5 -35 -7 0 -19 8 -25 18 -9 14 -10 12 -5 -11 4
-19 -1 -37 -15 -57 -11 -15 -20 -35 -20 -43 0 -22 -97 -29 -128 -9 -27 18 -41
8 -58 -41 -9 -25 -17 -32 -38 -32 -14 1 -26 -5 -26 -12 0 -6 -17 -15 -37 -19
-20 -4 -46 -15 -57 -25 -27 -26 -72 -25 -79 1 -3 11 -13 20 -22 20 -9 0 -19
-9 -22 -20 -8 -31 -36 -24 -74 18 -24 26 -41 36 -56 34 -13 -2 -23 1 -23 7 0
6 -11 11 -25 11 -28 0 -31 13 -15 72 6 21 19 39 29 43 10 3 23 16 29 30 11 23
9 24 -41 32 -54 9 -57 13 -46 67 6 30 -19 31 -27 1 -6 -24 -10 -27 -40 -22
-41 7 -54 -11 -54 -72 0 -23 -4 -41 -9 -41 -5 0 -13 -9 -16 -20 -3 -11 -14
-20 -23 -20 -14 0 -14 -2 -3 -9 11 -7 11 -15 1 -45 -9 -28 -17 -36 -36 -36
-13 0 -24 -4 -24 -10 0 -18 -55 -11 -77 10 -17 15 -22 16 -27 5 -3 -8 1 -21 9
-28 9 -10 12 -27 8 -56 -5 -34 -10 -42 -32 -47 -14 -3 -34 -9 -43 -15 -29 -15
-42 -10 -62 24 l-19 32 -9 -35 c-6 -19 -13 -37 -18 -40 -4 -3 -9 -14 -11 -25
-3 -14 -12 -20 -29 -20 -24 0 -25 2 -22 56 3 56 3 56 -23 52 -15 -3 -25 -1
-25 6 0 6 -5 11 -11 11 -6 0 -23 9 -37 21 l-26 20 -8 -21 c-5 -15 -15 -20 -30
-18 -18 2 -23 9 -23 33 0 25 4 30 28 33 15 2 28 8 28 13 10 71 -3 101 -36 88
-41 -16 -82 -10 -98 15 -20 29 -55 37 -108 22 -36 -9 -42 -8 -55 9 -20 27 -19
158 2 179 8 9 11 16 5 16 -6 0 -11 6 -11 14 0 7 -7 19 -15 26 -8 7 -15 19 -15
27 0 13 -43 63 -55 63 -3 0 -5 -10 -5 -21 0 -18 -5 -21 -29 -17 -23 3 -31 0
-35 -16 -9 -33 -7 -36 19 -36 14 0 25 -4 25 -10 0 -5 7 -10 15 -10 21 0 19
-23 -5 -43 -19 -16 -20 -19 -5 -39 18 -27 19 -72 4 -135 l-12 -45 -68 4 c-67
4 -69 3 -69 -20 0 -22 -3 -23 -55 -19 -42 4 -55 1 -55 -9 0 -8 -10 -14 -25
-14 -18 0 -25 5 -25 19 0 11 6 22 13 24 9 4 9 6 0 6 -18 1 -16 31 2 31 8 0 15
-4 15 -10 0 -5 6 -10 13 -10 7 0 13 12 12 28 0 23 4 27 27 27 14 -1 24 3 22 7
-3 4 -12 8 -20 8 -8 0 -14 8 -14 18 0 9 -9 23 -20 30 -11 7 -20 8 -20 3 0 -17
-31 -21 -75 -9 -35 10 -49 9 -69 -1 -28 -16 -56 -9 -56 14 0 28 -18 15 -31
-22 -7 -21 -23 -47 -36 -59 l-24 -20 36 -14 c34 -13 49 -40 22 -40 -7 0 -19
-9 -27 -20 -22 -30 -44 -26 -36 6 6 24 6 25 -9 10 -9 -9 -23 -16 -31 -16 -8 0
-14 -4 -14 -10 0 -5 5 -10 10 -10 16 0 11 -37 -6 -44 -27 -10 -44 -7 -44 9 0
8 7 15 15 15 8 0 15 5 15 10 0 6 -4 10 -10 10 -5 0 -10 9 -10 20 0 11 -4 20
-10 20 -5 0 -10 9 -10 20 0 11 5 20 11 20 6 0 4 7 -5 15 -21 21 -88 9 -121
-21 -30 -28 -31 -34 -5 -27 14 4 20 0 20 -11 0 -9 -4 -16 -10 -16 -5 0 -10 -9
-10 -20 0 -32 -30 -24 -31 8 -1 18 -3 21 -6 9 -4 -14 -11 -17 -29 -13 -17 5
-24 2 -24 -9 0 -8 -7 -15 -15 -15 -8 0 -15 5 -15 10 0 6 -9 10 -20 10 -11 0
-20 -4 -20 -10 0 -5 -12 -10 -26 -10 -23 0 -24 -1 -10 -16 26 -25 20 -54 -10
-54 -21 0 -25 4 -21 20 3 13 0 20 -8 20 -7 0 -15 5 -17 10 -3 11 -88 -67 -88
-81 0 -5 10 -9 21 -9 17 0 20 -4 15 -22 -3 -13 -6 -27 -6 -31 0 -5 -10 -8 -22
-7 -13 1 -37 2 -55 1 -29 -1 -32 -4 -38 -42 -5 -29 -13 -43 -26 -46 -10 -3
-19 -9 -19 -14 0 -5 -11 -9 -25 -9 -20 0 -25 -5 -25 -25 0 -18 -5 -25 -19 -25
-12 0 -21 -9 -25 -25 -4 -16 -13 -25 -26 -25 -11 0 -20 -6 -20 -14 0 -8 -8
-17 -17 -19 -17 -4 -17 -5 0 -6 21 -1 23 -31 2 -31 -8 0 -15 5 -15 10 0 6 -7
10 -16 10 -13 0 -15 7 -10 31 5 26 3 30 -10 25 -9 -3 -28 -9 -42 -12 -15 -3
-37 -11 -50 -17 -16 -7 -25 -8 -33 0 -15 15 -2 50 21 56 11 3 20 12 20 21 0
13 -8 14 -47 9 l-46 -6 6 31 c9 42 -12 58 -41 32 -24 -23 -38 -25 -46 -7 -5
10 -7 10 -12 0 -6 -14 -34 -18 -34 -5 0 6 -52 8 -107 4 -13 -1 -23 -9 -23 -17
0 -8 -7 -15 -15 -15 -18 0 -20 -27 -2 -33 17 -5 47 3 47 14 0 5 7 9 16 9 12 0
15 -7 12 -30 -3 -16 0 -30 5 -30 5 0 6 -11 3 -25 -4 -14 -1 -35 5 -46 13 -26
4 -69 -16 -69 -8 0 -15 7 -15 15 0 11 -7 14 -24 9 -19 -4 -26 -1 -31 15 -3 12
-13 21 -21 21 -8 0 -14 7 -14 15 0 8 8 15 18 15 21 0 72 22 72 31 0 4 -11 9
-25 11 -17 4 -25 1 -25 -8 0 -8 -7 -14 -15 -14 -8 0 -15 7 -15 15 0 18 2 17
-75 20 l-60 2 -2 -35 c-1 -19 -8 -39 -15 -44 -10 -7 -8 -12 10 -25 12 -8 22
-24 22 -35 0 -21 22 -48 39 -48 6 0 11 -3 11 -8 0 -4 15 -16 34 -26 20 -11 40
-31 46 -50 7 -17 19 -46 27 -64 8 -19 12 -45 8 -61 -6 -26 -10 -28 -55 -30
-48 -1 -49 0 -74 45 -14 26 -26 53 -26 60 0 21 -27 17 -33 -5 -3 -14 -18 -21
-56 -26 -29 -4 -55 -13 -57 -20 -3 -7 -18 -15 -33 -18 -16 -3 -36 -13 -44 -22
-9 -8 -30 -15 -47 -15 -17 0 -38 -6 -46 -14 -16 -17 -19 -56 -4 -56 15 0 12
-29 -4 -46 -18 -17 -36 -18 -36 -2 0 9 -3 9 -12 0 -16 -16 -68 -15 -68 1 0 7
15 19 33 26 27 11 33 18 30 35 -3 16 2 26 19 34 20 11 17 12 -24 7 -26 -2 -50
0 -53 5 -3 6 -14 10 -23 9 -11 0 -12 -3 -4 -6 17 -7 15 -33 -2 -33 -8 0 -16
-4 -18 -9 -1 -5 -25 -7 -51 -4 -47 6 -48 6 -42 34 5 24 4 28 -9 23 -9 -3 -16
-14 -16 -24 0 -10 -3 -25 -6 -34 -4 -11 -1 -16 10 -16 9 0 16 -7 16 -15 0 -18
-26 -20 -33 -2 -4 9 -6 9 -6 0 -1 -8 -17 -13 -45 -13 -60 0 -76 8 -76 36 0 21
-3 23 -26 14 -34 -13 -40 -13 -58 6 -9 9 -16 11 -16 4 0 -6 -10 -10 -22 -8
-21 3 -23 0 -20 -39 4 -47 -10 -68 -51 -78 -21 -6 -26 -2 -32 22 -4 15 -10 22
-12 16 -7 -21 -33 -15 -33 7 0 11 -5 20 -11 20 -7 0 -8 -14 -4 -40 4 -26 3
-40 -4 -40 -6 0 -11 -7 -11 -15 0 -8 -7 -15 -15 -15 -8 0 -15 7 -15 15 0 8 5
15 10 15 6 0 10 9 10 20 0 13 -7 20 -19 20 -24 0 -28 -13 -25 -72 3 -45 2 -48
-21 -48 -18 0 -25 5 -25 20 0 11 -4 20 -10 20 -5 0 -10 -5 -10 -11 0 -6 -9 -9
-20 -6 -10 3 -21 0 -23 -6 -2 -7 -12 -7 -33 0 -33 12 -84 6 -84 -8 0 -5 5 -9
10 -9 6 0 10 -7 10 -15 0 -8 -7 -15 -15 -15 -8 0 -15 5 -15 10 0 18 -26 11
-54 -15 -15 -14 -34 -25 -42 -25 -10 0 -13 -7 -8 -24 5 -23 -16 -57 -43 -67
-6 -2 -7 -12 -2 -24 7 -18 8 -19 8 -1 1 14 6 17 24 12 12 -3 25 -6 30 -6 4 0
7 -7 7 -16 0 -11 -6 -15 -20 -11 -13 3 -20 0 -20 -9 0 -8 -5 -14 -12 -14 -19
0 25 -29 45 -30 26 0 21 -30 -5 -31 -13 0 -17 -3 -10 -6 6 -2 12 -11 12 -19 0
-23 17 -16 24 11 4 14 14 25 22 25 12 0 15 -6 10 -24 -5 -20 -3 -23 14 -19 14
4 20 0 20 -11 0 -9 -4 -16 -10 -16 -5 0 -10 -18 -10 -40 0 -22 5 -40 10 -40 6
0 15 -11 20 -24 5 -15 20 -27 39 -31 17 -4 31 -13 31 -21 0 -16 -23 -18 -50
-4 -24 13 -35 -4 -15 -23 19 -20 19 -47 0 -47 -8 0 -15 -4 -15 -10 0 -5 -16
-10 -35 -10 -29 0 -35 4 -35 21 0 18 4 20 25 15 20 -5 25 -3 25 13 0 16 -9 21
-47 26 -61 8 -77 17 -81 44 -4 24 -22 29 -22 6 0 -8 -7 -15 -15 -15 -8 0 -15
7 -15 15 0 8 5 15 10 15 6 0 10 8 10 18 0 10 5 23 12 30 9 9 8 12 -5 12 -10 0
-17 8 -17 19 0 16 -33 31 -71 31 -12 0 -11 -57 1 -65 17 -11 11 -35 -9 -35
-14 0 -17 -6 -13 -25 3 -18 0 -25 -11 -25 -10 0 -13 -6 -10 -20 3 -11 0 -20
-6 -20 -6 0 -11 -7 -11 -16 0 -11 -6 -15 -19 -11 -25 6 -49 -9 -36 -22 16 -16
65 -25 65 -12 0 6 7 11 15 11 27 0 17 -37 -11 -44 -15 -4 -29 -4 -32 -1 -3 3
-11 -12 -18 -32 -11 -32 -11 -40 1 -53 8 -9 15 -22 15 -28 0 -7 9 -12 20 -12
25 0 37 -27 23 -49 -16 -25 -39 -24 -65 1 -23 23 -68 27 -68 6 0 -6 -11 -8
-25 -6 -13 3 -23 2 -22 -1 18 -41 33 -61 44 -61 7 0 13 -7 13 -15 0 -8 -7 -15
-15 -15 -8 0 -15 -9 -15 -20 0 -11 5 -20 10 -20 6 0 10 -16 10 -35 0 -31 -3
-35 -35 -41 -20 -3 -35 -12 -35 -20 0 -8 -7 -14 -15 -14 -9 0 -15 -9 -15 -25
0 -16 -6 -25 -15 -25 -9 0 -15 9 -15 25 0 14 5 25 10 25 15 0 12 30 -2 31 -23
2 -53 -3 -58 -10 -3 -3 -31 -6 -63 -7 -52 0 -58 2 -53 19 4 16 0 17 -24 12
-21 -5 -33 -1 -49 16 -16 18 -21 19 -21 7 0 -19 -20 -28 -64 -28 -38 0 -61
-24 -61 -62 0 -19 5 -28 16 -28 11 0 21 -16 29 -46 12 -41 11 -47 -3 -56 -23
-12 -21 -28 3 -28 11 0 20 -7 20 -15 0 -8 -6 -15 -13 -15 -9 0 -12 -10 -9 -30
3 -22 0 -30 -11 -30 -23 0 -48 46 -41 74 5 21 3 24 -14 19 -16 -4 -21 3 -31
43 -9 36 -15 44 -22 34 -13 -23 -11 -56 6 -70 19 -16 20 -70 1 -70 -18 0 -33
19 -39 50 -4 21 -4 20 -6 -7 -1 -26 -5 -33 -21 -33 -11 0 -20 4 -20 9 0 5 -15
12 -34 15 -19 4 -37 12 -40 19 -5 9 -7 9 -12 0 -7 -15 -54 -17 -54 -3 0 6 -4
10 -10 10 -5 0 -10 -7 -10 -15 0 -8 -4 -15 -9 -15 -4 0 -6 -11 -3 -25 3 -18
10 -25 26 -24 17 1 17 2 4 6 -10 2 -18 14 -18 25 0 18 4 20 31 14 17 -3 35 -6
40 -6 5 0 9 -16 9 -35 0 -19 -4 -35 -9 -35 -27 0 -20 -124 8 -134 9 -3 22 -9
29 -12 7 -3 12 1 12 10 0 9 7 16 15 16 18 0 20 -26 3 -33 -8 -3 -6 -6 5 -6 9
-1 17 -5 17 -10 0 -5 11 -12 25 -15 18 -5 25 -13 25 -30 0 -42 21 -86 41 -86
10 0 19 -4 19 -10 0 -5 7 -10 15 -10 16 0 18 -12 9 -47 -5 -17 -14 -23 -35
-23 -16 0 -29 -4 -29 -10 0 -5 -6 -10 -14 -10 -8 0 -22 -7 -31 -16 -20 -20
-45 -11 -45 16 0 19 -1 20 -36 5 -47 -19 -51 -19 -59 5 -5 17 -12 19 -51 13
-31 -4 -44 -2 -44 6 0 7 -4 9 -10 6 -5 -3 -10 -15 -10 -26 0 -34 -89 -16 -91
18 0 11 -3 13 -6 6 -2 -7 -13 -13 -23 -13 -10 0 -20 -7 -24 -15 -3 -8 -1 -15
4 -15 20 0 9 -30 -15 -46 -20 -13 -23 -19 -14 -30 6 -8 18 -14 26 -14 21 0 43
-25 43 -50 0 -16 -5 -21 -23 -18 -17 2 -23 -3 -25 -20 -3 -22 -1 -23 41 -17
29 4 47 3 51 -4 9 -14 46 -15 46 -1 0 6 7 10 15 10 8 0 15 -7 15 -15 0 -8 -3
-15 -7 -15 -5 0 -8 -10 -8 -22 0 -20 5 -23 36 -23 37 0 69 23 69 49 0 10 9 16
24 16 13 0 29 7 36 15 9 11 22 14 42 9 24 -5 30 -2 35 15 3 12 12 21 19 21 18
0 18 -35 1 -51 -16 -15 -10 -64 9 -80 8 -6 14 -21 14 -33 0 -47 11 -66 35 -60
22 5 23 3 23 -46 1 -38 -5 -60 -20 -80 -18 -24 -19 -32 -9 -63 7 -20 19 -41
27 -47 15 -13 20 -86 5 -92 -4 -1 -11 -14 -15 -28 -5 -17 -4 -21 2 -11 12 17
52 6 52 -15 0 -8 4 -14 10 -14 5 0 12 -16 16 -35 3 -20 12 -35 20 -35 8 0 14
-10 14 -25 0 -14 5 -25 10 -25 6 0 10 -5 10 -11 0 -13 -25 -39 -38 -39 -6 0
-12 -7 -16 -15 -3 -8 -12 -15 -21 -15 -8 0 -15 -4 -15 -10 0 -5 -9 -10 -20
-10 -11 0 -20 5 -20 12 0 6 -2 9 -5 6 -9 -9 7 -38 21 -38 16 0 20 -55 4 -65
-7 -4 -7 -13 0 -26 6 -11 15 -17 20 -14 5 3 21 3 35 -1 18 -4 25 -13 25 -30 0
-26 -11 -30 -39 -15 -9 5 -23 6 -30 2 -9 -6 -7 -10 8 -14 25 -6 30 -57 6 -57
-8 0 -15 -9 -15 -20 0 -25 -37 -27 -43 -2 -4 13 -5 12 -6 -5 0 -12 -7 -24 -13
-26 -8 -3 -6 -6 5 -6 9 -1 17 -7 17 -14 0 -17 -36 -34 -73 -36 -16 0 -35 -8
-43 -16 -9 -8 -19 -15 -24 -15 -5 0 -2 -12 6 -28 20 -39 18 -62 -6 -62 -31 0
-28 -57 4 -70 16 -6 27 -20 32 -42 4 -18 9 -27 11 -20 6 17 43 15 43 -2 0 -8
5 -16 11 -18 7 -2 9 -22 4 -60 -7 -55 -9 -58 -44 -69 -61 -19 -57 -28 15 -26
65 2 68 1 74 -23 4 -17 8 -21 14 -12 4 6 15 12 25 12 10 0 21 9 24 20 6 22 37
28 37 8 0 -7 5 -20 10 -28 8 -13 11 -12 24 5 12 16 18 18 33 9 10 -6 19 -23
21 -37 3 -20 -2 -26 -19 -29 -27 -4 -59 -78 -33 -78 7 0 14 -7 14 -16 0 -11
-6 -15 -20 -11 -11 3 -20 1 -20 -4 0 -5 -6 -9 -14 -9 -8 0 -21 -6 -28 -14 -8
-8 -23 -16 -34 -18 -11 -2 -19 -11 -19 -23 0 -18 6 -20 48 -17 30 2 47 0 47
-8 0 -6 5 -8 10 -5 16 10 50 -5 50 -22 0 -10 -6 -14 -19 -10 -20 5 -37 -28
-20 -39 16 -10 9 -34 -10 -34 -13 0 -20 -9 -24 -30 -4 -17 -13 -30 -21 -30 -8
0 -21 -6 -28 -13 -26 -27 -89 -40 -159 -34 -59 5 -71 3 -96 -16 -15 -12 -31
-25 -34 -30 -3 -5 -12 -7 -20 -6 -8 2 -31 0 -51 -4 -34 -7 -38 -11 -38 -37 0
-20 -5 -30 -15 -30 -8 0 -15 6 -15 14 0 7 -7 19 -15 26 -12 10 -16 9 -21 -4
-3 -9 -12 -16 -20 -16 -9 0 -14 -12 -14 -35 0 -38 -25 -59 -41 -34 -6 9 -9 10
-9 2 0 -6 -17 -13 -37 -15 -42 -3 -55 -27 -30 -53 13 -13 16 -13 21 0 3 8 12
15 20 15 8 0 16 5 18 11 6 18 78 2 78 -16 0 -8 5 -15 11 -15 12 0 2 -111 -11
-120 -14 -10 -30 -49 -30 -73 0 -22 -16 -37 -41 -37 -5 0 -9 9 -9 20 0 11 4
20 9 20 5 0 11 8 14 19 4 18 2 18 -44 3 -27 -9 -49 -19 -49 -24 0 -4 -16 -8
-35 -8 -33 0 -35 -2 -29 -25 4 -18 2 -25 -9 -25 -8 0 -17 7 -21 15 -9 24 -26
17 -26 -10 0 -16 6 -25 15 -25 8 0 15 -4 15 -9 0 -4 20 -4 45 2 25 6 45 14 45
19 0 4 7 8 15 8 8 0 15 -4 15 -10 0 -5 7 -10 15 -10 8 0 15 5 15 11 0 7 16 9
50 4 42 -6 50 -4 50 9 0 9 7 16 15 16 8 0 15 -7 15 -16 0 -13 3 -14 13 -6 7 7
47 17 88 23 41 7 79 19 86 26 9 11 19 12 48 4 23 -6 46 -6 62 0 13 5 42 9 63
9 27 0 44 7 61 25 25 26 63 33 75 14 8 -13 108 -6 127 9 7 5 45 10 85 11 64 1
72 -1 72 -17 0 -14 -12 -21 -51 -30 -28 -7 -68 -12 -89 -12 -29 0 -39 -4 -43
-20 -6 -23 -37 -27 -37 -5 0 8 -7 15 -15 15 -8 0 -15 -9 -15 -20 0 -13 -7 -20
-20 -20 -10 0 -31 -6 -46 -12 -24 -11 -28 -10 -42 10 -15 22 -42 30 -42 12 0
-5 -20 -10 -45 -10 -25 0 -45 -4 -45 -9 0 -5 -25 -13 -55 -16 -30 -4 -55 -11
-55 -16 0 -5 -7 -9 -15 -9 -8 0 -15 4 -15 8 0 10 -81 -3 -157 -25 -29 -9 -59
-13 -67 -10 -8 3 -27 2 -43 -3 -15 -5 -49 -12 -75 -15 -26 -4 -53 -12 -60 -18
-7 -7 -34 -21 -60 -31 -45 -17 -60 -37 -38 -51 5 -3 10 0 10 8 0 11 16 14 69
14 38 1 77 6 87 12 17 9 17 10 2 11 -12 0 -18 8 -18 25 0 16 6 25 15 25 8 0
15 -4 15 -10 0 -5 9 -10 20 -10 13 0 20 -7 20 -20 0 -11 5 -20 10 -20 6 0 10
7 10 15 0 8 7 15 16 15 9 0 18 9 21 20 3 11 12 20 20 20 11 0 13 -7 9 -25 -4
-14 -2 -25 4 -25 5 0 10 5 10 10 0 6 14 10 30 10 17 0 30 -5 30 -12 0 -9 3 -9
12 0 7 7 22 12 35 12 14 0 23 6 23 15 0 21 28 19 33 -2 4 -16 5 -16 6 1 1 16
6 17 39 11 20 -4 42 -7 47 -6 6 1 36 3 68 6 31 2 78 11 102 20 25 8 57 15 70
15 18 0 25 5 25 20 0 12 7 20 16 20 12 0 15 -7 11 -25 -2 -14 -2 -24 2 -23 38
20 71 46 75 60 2 10 12 18 21 18 13 0 16 -6 12 -21 -5 -19 -3 -21 31 -15 20 3
66 8 102 11 36 3 85 7 110 9 25 3 48 5 53 5 4 1 12 12 17 26 12 32 60 36 60 5
0 -15 7 -20 25 -20 14 0 25 5 25 10 0 6 9 10 19 10 11 0 23 5 27 11 4 8 27 10
65 6 33 -3 59 -2 59 3 0 12 73 20 86 9 8 -7 14 -7 19 1 9 14 62 13 68 -2 4 -9
6 -7 6 3 1 21 43 39 92 39 48 0 99 27 99 52 0 10 7 18 15 18 8 0 15 -4 15 -9
0 -5 9 -7 19 -4 11 3 27 1 36 -4 23 -13 65 -4 65 13 0 8 9 14 20 14 11 0 20
-7 20 -15 0 -20 39 -20 67 0 12 9 36 14 54 13 19 -1 34 3 37 10 5 17 27 15 42
-3 9 -11 26 -14 61 -11 57 4 79 19 79 53 0 13 7 26 17 30 10 4 25 15 34 25 22
24 43 23 36 -2 -4 -15 0 -20 14 -20 13 0 19 -7 19 -23 0 -20 4 -23 29 -19 22
3 28 8 24 23 -4 13 0 19 11 19 9 0 16 -7 16 -15 0 -9 9 -15 24 -15 19 0 23 4
19 20 -4 14 0 20 11 20 9 0 16 -4 16 -10 0 -17 29 -11 50 10 11 11 26 20 33
20 18 0 57 -34 57 -49 0 -15 40 -5 55 14 17 21 52 27 76 13 17 -10 23 -10 26
0 6 15 45 16 61 0 9 -9 12 -7 12 10 0 14 6 22 18 22 26 -1 52 -25 52 -49 0
-20 -4 -22 -30 -16 -22 5 -33 2 -47 -14 -19 -23 -49 -28 -56 -8 -3 6 -6 0 -6
-15 -1 -32 -2 -32 -71 -16 -41 9 -53 9 -59 -1 -5 -7 -21 -14 -37 -16 -16 -1
-37 -6 -46 -10 -9 -4 -21 -4 -27 -1 -17 11 -91 -6 -91 -20 0 -10 -11 -12 -48
-8 -26 3 -53 8 -61 10 -23 7 -79 -18 -85 -39 -4 -17 -10 -18 -43 -11 -52 12
-126 9 -131 -5 -2 -6 -10 -11 -18 -11 -10 0 -14 -12 -14 -39 0 -30 4 -40 20
-44 11 -3 20 -1 20 4 0 5 9 9 20 9 15 0 20 -7 20 -30 0 -16 -6 -33 -14 -37
-19 -12 -40 -53 -26 -53 14 0 40 -25 40 -38 0 -22 -30 -34 -70 -27 -40 7 -58
34 -22 36 10 0 12 3 5 6 -7 2 -13 14 -13 25 0 14 -5 18 -17 14 -10 -2 -38 -8
-62 -11 -82 -13 -101 -60 -21 -49 45 6 50 5 50 -12 -1 -37 -24 -54 -63 -47
-24 4 -37 11 -38 22 0 9 -5 3 -11 -13 -10 -28 -12 -28 -64 -23 -32 3 -56 1
-60 -5 -3 -5 -16 -7 -27 -4 -25 6 -47 -10 -47 -35 0 -11 -7 -19 -15 -19 -8 0
-15 6 -15 13 0 8 -23 13 -73 14 -39 1 -82 5 -94 8 -27 6 -31 35 -6 35 9 0 36
9 60 21 35 17 46 19 58 9 11 -9 15 -9 15 -1 0 7 13 9 39 5 33 -5 39 -3 43 14
4 15 17 22 51 27 40 6 44 9 35 24 -19 31 -128 14 -128 -20 0 -14 -7 -19 -30
-19 -19 0 -30 5 -30 14 0 23 -16 27 -66 16 -56 -13 -69 -4 -59 39 6 28 10 31
38 30 18 -2 59 -2 92 0 46 1 56 4 43 12 -28 16 -23 49 6 49 13 0 26 -4 28 -10
1 -5 26 -10 53 -11 28 -1 55 -6 61 -11 8 -5 26 0 50 14 29 17 52 22 96 21 32
0 58 3 58 8 0 5 7 9 15 9 21 0 19 9 -7 30 -18 14 -35 17 -88 13 -36 -2 -84 -8
-108 -14 -23 -5 -54 -6 -67 -3 -14 3 -31 2 -38 -4 -6 -5 -28 -13 -47 -16 -66
-13 -125 -29 -137 -39 -7 -5 -33 -6 -59 -2 -53 8 -144 -12 -144 -32 0 -7 -7
-13 -15 -13 -8 0 -15 4 -15 9 0 15 -51 23 -79 13 -39 -14 -101 -30 -143 -37
-24 -4 -38 -11 -38 -20 0 -9 -9 -15 -21 -15 -16 0 -20 5 -16 20 6 23 -6 26
-25 6 -8 -7 -23 -16 -35 -20 -11 -4 -23 -16 -26 -26 -6 -23 -37 -27 -37 -5 0
13 -3 13 -20 3 -11 -7 -20 -16 -20 -19 0 -13 93 -15 106 -2 17 17 31 16 38 -2
3 -8 12 -15 21 -15 25 0 17 -31 -15 -62 -16 -15 -30 -37 -30 -48 0 -11 -4 -20
-9 -20 -4 0 -6 -10 -4 -23 8 -43 -95 -88 -120 -53 -6 7 -7 6 -4 -4 3 -11 18
-15 61 -13 51 2 56 0 56 -19 0 -15 -5 -19 -20 -15 -15 4 -20 0 -20 -14 0 -14
-8 -19 -32 -20 -31 -2 -31 -2 -5 -6 15 -2 27 -7 27 -11 0 -4 15 -7 33 -7 29 0
33 3 29 22 -4 22 -2 23 57 20 42 -1 61 2 61 10 0 12 13 18 71 27 27 5 38 3 42
-8 7 -19 113 -32 133 -15 8 7 30 9 54 6 22 -3 40 -1 40 4 0 5 9 9 20 9 23 0
89 31 134 63 23 16 32 18 47 9 10 -7 30 -12 45 -12 14 0 32 -7 40 -15 9 -8 33
-15 54 -15 35 0 39 3 50 36 10 31 15 35 36 30 14 -4 24 -2 24 4 0 13 36 13 62
-1 14 -8 23 -8 31 0 14 14 54 14 62 1 8 -12 77 -2 86 13 4 5 21 8 38 5 21 -3
31 0 31 9 0 7 9 13 20 13 12 0 20 7 20 16 0 12 7 15 25 12 14 -3 25 -2 25 3 0
4 25 7 56 5 39 -2 66 2 92 15 38 20 72 25 72 11 0 -5 12 -14 26 -21 19 -8 25
-17 21 -31 -3 -11 -1 -20 4 -20 5 0 9 7 9 16 0 9 7 14 17 13 25 -4 84 29 112
62 25 31 46 37 54 17 4 -9 8 -10 14 -2 4 6 40 10 81 10 58 -1 76 -5 86 -19 7
-9 19 -17 25 -17 15 0 41 25 41 38 0 6 7 12 15 16 8 3 15 13 15 22 0 12 7 15
25 12 17 -4 25 -1 25 8 0 8 7 14 15 14 8 0 15 -9 15 -20 0 -26 20 -26 27 0 7
26 39 26 53 0 7 -13 21 -20 40 -20 20 0 30 -5 30 -15 0 -9 6 -12 15 -9 8 4 15
17 15 29 0 13 5 27 11 31 6 4 8 20 4 40 -5 27 -3 34 10 34 8 0 15 -4 15 -10 0
-12 30 -1 49 18 9 9 26 11 52 7 35 -6 39 -5 39 14 0 12 6 21 15 21 8 0 15 7
15 15 0 8 11 17 24 21 32 8 23 31 -14 36 -35 5 -45 0 -54 -29 -7 -22 -36 -33
-36 -14 0 12 -59 35 -83 33 -27 -2 -57 16 -57 33 0 8 -5 15 -10 15 -6 0 -8
-11 -4 -25 5 -21 3 -25 -15 -25 -29 0 -71 -39 -71 -67 0 -19 -5 -23 -30 -23
-16 0 -30 -4 -30 -10 0 -12 -27 -13 -32 -2 -1 5 -18 12 -36 15 -24 5 -34 3
-38 -8 -4 -8 -13 -15 -21 -15 -12 0 -14 8 -10 40 3 22 1 40 -4 40 -5 0 -9 -7
-9 -15 0 -18 -26 -20 -34 -2 -5 9 -7 9 -12 0 -7 -15 -34 -18 -34 -4 0 5 -12 6
-28 2 -21 -6 -28 -14 -30 -38 -2 -25 1 -33 18 -38 16 -5 20 -12 16 -28 -3 -12
-6 -25 -6 -29 0 -5 -9 -8 -20 -8 -16 0 -20 7 -21 33 -1 17 -3 25 -6 16 -4 -16
-52 -31 -141 -46 -29 -5 -32 -3 -32 20 0 20 -4 24 -25 19 -20 -3 -25 0 -25 16
0 15 9 21 39 26 22 3 42 10 46 15 3 6 -8 6 -27 1 -18 -5 -57 -11 -85 -15 -29
-4 -53 -11 -53 -17 0 -6 14 -8 35 -4 28 6 35 4 35 -9 0 -8 -7 -15 -15 -15 -21
0 -37 -46 -29 -85 5 -31 4 -33 -27 -40 -39 -9 -62 15 -56 57 2 19 -1 28 -10
28 -7 0 -13 7 -13 15 0 8 5 15 10 15 6 0 10 7 10 15 0 18 -27 20 -32 3 -4 -10
-20 -10 -74 1 -86 16 -114 29 -114 53 0 32 27 49 85 53 31 3 65 10 76 16 12 6
50 9 92 6 40 -2 62 -2 49 0 -14 3 -22 12 -22 24 0 27 40 26 47 -2 4 -16 11
-19 27 -14 11 4 32 8 46 9 25 1 70 37 70 56 0 13 73 2 78 -11 2 -5 14 -9 26
-9 12 0 28 -9 36 -20 18 -25 44 -26 67 -1 21 23 68 37 77 23 8 -14 46 -3 46
13 0 7 7 15 15 19 8 3 15 12 15 21 0 18 40 21 57 4 7 -7 24 -8 42 -4 27 6 31
11 31 41 0 41 16 44 54 9 15 -14 31 -25 37 -25 5 0 9 -10 10 -22 1 -16 4 -11
11 15 10 36 31 49 41 25 4 -10 8 -9 16 2 9 12 4 16 -22 20 -26 4 -33 10 -35
34 -3 26 -1 28 20 23 13 -4 38 -7 57 -7 32 0 33 -2 28 -29 -5 -24 -3 -28 12
-24 10 3 22 0 25 -6 4 -6 19 -3 40 10 23 13 49 19 78 18 47 -3 68 5 68 24 0
18 49 67 66 67 9 0 18 -9 21 -20 3 -11 9 -20 14 -20 5 0 9 -7 9 -15 0 -9 9
-15 25 -15 14 0 25 5 25 10 0 6 11 10 25 10 15 0 25 -6 25 -14 0 -20 41 -8 59
17 11 16 21 18 56 13 34 -4 44 -2 49 10 8 20 54 11 73 -14 11 -15 12 -16 13
-1 0 18 28 29 72 29 15 0 30 5 33 10 3 5 17 10 31 10 16 0 24 6 24 16 0 14 8
16 46 10 26 -3 53 -6 60 -6 8 0 14 -10 14 -24 0 -13 7 -29 15 -36 20 -17 20
-70 0 -70 -10 0 -15 -10 -15 -28 0 -23 7 -31 35 -42 41 -16 44 -45 5 -46 -14
0 -38 -6 -54 -13 -16 -6 -35 -10 -43 -7 -25 10 -40 -4 -35 -34 3 -23 0 -30
-12 -30 -10 0 -16 9 -16 23 0 23 -2 24 -98 22 -53 0 -102 -4 -108 -7 -5 -4
-35 -10 -65 -14 -30 -4 -59 -14 -65 -22 -8 -11 -31 -16 -80 -16 -64 -1 -69 -3
-72 -23 -4 -25 -32 -32 -32 -9 0 17 -60 30 -74 16 -14 -14 -63 -12 -69 3 -3 7
-6 5 -6 -5 -1 -13 -9 -18 -30 -18 -35 0 -49 -27 -24 -45 22 -16 43 -8 43 16 0
25 27 36 51 21 10 -7 36 -12 57 -12 20 0 48 -7 61 -16 19 -13 22 -24 19 -55
-3 -30 0 -38 10 -34 8 3 16 5 18 5 2 0 4 6 4 14 0 7 7 19 15 26 8 7 15 21 15
31 0 11 7 19 15 19 8 0 15 -9 15 -20 0 -23 28 -27 36 -5 4 8 15 15 25 15 10 0
19 5 19 10 0 24 29 7 35 -20 7 -31 22 -47 33 -35 4 4 1 10 -5 12 -15 6 -17 39
-3 48 5 3 10 17 10 31 0 28 28 44 41 23 6 -10 9 -10 9 -1 0 15 31 15 82 0 33
-10 40 -9 51 5 10 15 19 15 67 6 120 -23 130 -23 130 -1 0 23 49 41 60 21 5
-8 20 -9 44 -5 32 6 36 5 36 -14 0 -15 -6 -20 -25 -20 -16 0 -25 -6 -25 -15 0
-11 12 -15 45 -15 44 0 45 0 45 34 0 28 4 35 25 40 21 5 25 12 25 40 0 19 3
41 6 50 4 11 1 16 -10 16 -9 0 -16 4 -16 9 0 5 -9 11 -20 14 -15 4 -20 0 -20
-14 0 -27 -26 -24 -34 4 -9 33 -8 37 9 37 18 0 18 5 4 32 -13 24 -4 68 15 68
7 0 19 7 26 15 10 12 9 16 -4 21 -23 9 -20 34 4 34 15 0 20 7 20 29 0 20 6 31
17 34 16 4 16 5 -1 6 -14 1 -17 6 -12 26 4 14 2 25 -4 25 -5 0 -10 9 -10 20 0
11 -4 20 -10 20 -20 0 -9 28 13 34 43 11 55 7 62 -23 3 -16 13 -35 21 -42 8
-6 14 -20 14 -30 0 -11 5 -19 10 -19 6 0 10 9 10 21 0 15 5 20 21 17 36 -5 46
-32 26 -72 l-17 -36 34 0 c28 0 36 -5 46 -30 10 -25 9 -33 -9 -59 l-21 -29 32
-7 c21 -5 33 -4 36 4 2 6 17 11 33 11 25 0 29 4 29 29 0 34 2 36 53 45 31 6
37 4 37 -11 0 -12 3 -14 11 -6 8 8 6 17 -8 32 -17 18 -28 21 -69 17 -93 -9
-119 14 -68 60 28 27 64 32 64 9 0 -12 5 -11 32 3 18 9 44 29 59 45 15 15 38
27 52 27 13 0 30 7 37 15 10 12 10 15 -4 15 -9 0 -16 6 -16 14 0 24 11 46 24
46 13 0 46 35 46 50 0 6 7 10 15 10 8 0 15 -4 15 -10 0 -5 9 -10 19 -10 19 0
31 -18 31 -50 0 -12 -13 -21 -45 -30 -33 -9 -45 -18 -45 -31 0 -11 5 -19 10
-19 6 0 10 7 10 15 0 8 7 15 15 15 8 0 15 -7 15 -15 0 -8 -4 -15 -10 -15 -5 0
-10 -9 -10 -20 0 -11 -3 -20 -8 -20 -4 0 -6 -18 -4 -41 4 -34 1 -41 -17 -46
-11 -3 -21 -12 -21 -19 0 -9 -13 -14 -37 -15 -21 0 -32 -3 -25 -6 6 -2 12 -12
12 -20 0 -14 2 -14 18 0 10 10 26 17 36 17 14 0 16 -6 11 -29 -5 -23 -2 -29
14 -34 23 -6 29 -37 7 -37 -21 0 3 -48 27 -54 10 -2 21 -14 24 -25 3 -12 14
-21 24 -21 11 0 24 -10 28 -22 9 -22 9 -22 17 -4 5 13 3 21 -4 24 -15 5 -16
62 -1 62 18 0 41 -30 35 -45 -3 -8 -1 -15 4 -15 6 0 10 7 10 15 0 11 13 15 53
16 l52 1 -33 14 c-17 8 -32 19 -32 25 0 18 -28 39 -44 33 -9 -3 -16 -12 -16
-20 0 -8 -7 -14 -15 -14 -8 0 -15 7 -15 15 0 9 -9 15 -25 15 -31 0 -33 21 -4
62 19 27 26 30 59 25 32 -4 41 -1 61 24 13 16 31 29 39 29 8 0 21 9 28 20 13
21 66 28 77 10 3 -5 15 -10 26 -10 10 0 19 -4 19 -8 0 -4 33 -8 73 -7 72 0 73
0 69 25 -4 31 -43 52 -60 34 -7 -7 -12 -20 -12 -29 0 -8 -7 -15 -15 -15 -17 0
-55 35 -55 49 0 6 -21 3 -47 -6 -34 -12 -48 -13 -51 -5 -2 7 -14 12 -27 12
-17 0 -24 7 -29 32 -4 19 -2 34 3 36 6 2 8 17 4 33 -5 25 -3 29 18 30 13 0 18
3 12 6 -7 2 -13 13 -13 24 0 29 38 25 46 -6 3 -13 15 -27 25 -30 11 -4 19 -16
19 -28 0 -17 11 -27 43 -41 63 -29 91 -26 95 8 3 19 8 26 20 24 9 -2 27 7 38
19 12 13 32 23 45 23 13 0 33 7 43 15 25 19 53 19 90 0 39 -21 46 -19 46 10 0
24 2 25 39 19 24 -4 41 -2 45 5 4 6 18 11 32 11 17 0 24 -5 24 -20 0 -26 36
-27 42 -2 6 23 83 45 125 36 20 -4 35 -1 46 10 13 14 23 14 69 4 29 -7 55 -15
58 -18 9 -12 50 -18 56 -9 3 5 14 9 25 9 10 0 19 7 19 15 0 8 7 15 16 15 8 0
22 7 30 15 20 19 53 19 60 0 8 -20 24 -19 24 1 0 12 7 14 31 9 22 -5 34 -3 40
6 6 11 14 11 38 3 26 -10 30 -9 40 12 10 24 41 34 41 14 0 -7 7 -7 21 1 12 6
30 9 40 6 10 -3 40 1 66 9 70 21 119 19 126 -7 5 -19 7 -19 29 -5 13 8 50 19
83 25 53 10 99 31 67 31 -7 0 -12 9 -12 20 0 11 7 20 15 20 8 0 15 -7 15 -16
0 -24 30 -43 68 -44 18 0 35 -6 38 -14 7 -18 51 2 58 26 4 19 56 26 56 8 0 -5
13 -1 30 8 32 18 38 44 18 87 -13 30 -13 31 29 40 28 5 33 4 33 -12 0 -14 2
-15 9 -4 13 21 68 -6 76 -37 8 -32 2 -36 -34 -24 -24 9 -33 7 -51 -10 -17 -16
-19 -22 -8 -29 18 -12 48 -11 48 1 0 6 7 10 15 10 8 0 15 -5 15 -11 0 -8 18
-10 59 -6 43 5 61 3 64 -6 3 -6 6 -2 6 11 1 18 7 22 34 22 18 0 42 -7 54 -15
20 -14 22 -14 28 5 3 11 15 20 26 20 10 0 19 5 19 10 0 6 -9 10 -20 10 -13 0
-20 7 -20 20 0 11 4 20 9 20 20 0 41 -13 41 -25 0 -16 53 -31 58 -16 5 14 39
14 47 1 12 -20 25 -10 25 19 0 16 6 32 13 34 6 3 -3 8 -21 12 -37 8 -56 36
-47 65 9 29 43 25 51 -5 3 -14 12 -25 20 -25 8 0 14 -7 14 -15 0 -8 5 -15 10
-15 15 0 12 -30 -2 -31 -7 0 -2 -4 12 -8 14 -5 57 -4 95 1 48 7 71 6 73 -1 5
-16 58 -13 72 4 9 11 23 13 51 9 37 -6 39 -5 39 20 0 19 5 26 20 26 25 0 36
-25 20 -45 -16 -20 -3 -19 16 0 9 8 26 18 40 21 30 8 94 -4 94 -16 0 -5 14 -7
30 -3 26 5 30 3 30 -16 0 -19 5 -16 43 21 30 31 38 45 30 51 -18 11 -16 47 1
47 8 0 17 -9 21 -19 6 -20 15 -24 75 -36 19 -4 40 -10 45 -13 32 -20 155 -1
155 23 0 19 20 19 48 -1 12 -8 22 -10 22 -5 0 6 9 11 19 11 11 0 23 9 26 20 6
20 30 28 37 12 2 -5 15 -12 30 -16 21 -5 30 -2 38 13 8 16 20 20 68 19 66 -1
122 10 122 23 0 5 -10 9 -22 9 -52 0 -68 11 -68 44 0 17 4 38 10 46 8 12 12
12 36 0 15 -8 29 -23 32 -32 2 -10 10 -18 18 -18 7 0 16 -15 19 -33 6 -30 9
-32 46 -32 21 -1 39 3 39 7 0 17 28 7 33 -12 8 -29 69 -28 89 2 17 25 44 19
56 -12 8 -21 8 -21 29 -2 12 10 25 30 28 45 4 15 11 27 15 27 4 0 10 9 13 20
6 25 34 26 41 3 9 -26 77 -55 122 -53 76 4 129 0 132 -10 4 -10 33 -6 82 10
14 5 37 11 51 14 15 3 29 14 32 26 7 29 55 27 67 -2 7 -18 9 -19 9 -5 1 9 8
17 16 17 10 0 15 10 15 33 0 32 -1 32 -40 29 -37 -4 -40 -2 -40 20 0 29 57 63
93 56 20 -4 23 -1 19 14 -3 14 1 18 22 18 20 0 27 -5 25 -17 -1 -10 5 -35 15
-55 9 -21 16 -49 16 -63 0 -14 5 -25 10 -25 6 0 10 -7 10 -15 0 -9 9 -15 21
-15 20 0 21 4 15 40 -5 32 -3 40 9 40 8 0 15 4 15 9 0 5 3 16 6 24 4 12 0 14
-16 10 -18 -5 -21 -2 -18 13 2 14 13 20 41 21 20 1 37 -2 37 -8 0 -12 25 -39
36 -39 5 0 3 5 -4 12 -17 17 -15 38 3 38 8 0 15 5 15 10 0 17 36 11 53 -8 25
-28 22 -52 -8 -52 -14 0 -29 -8 -35 -20 -12 -23 -40 -27 -40 -5 0 10 -6 12
-17 8 -28 -11 -45 -32 -39 -48 6 -16 71 -21 80 -6 10 16 223 18 239 2 11 -11
76 19 77 36 0 10 13 12 128 13 35 1 42 4 42 21 0 22 32 39 38 21 2 -7 8 -12
14 -12 5 0 16 -7 24 -15 9 -8 22 -15 30 -15 14 0 14 2 0 15 -8 8 -19 15 -25
15 -12 0 -24 37 -16 50 15 24 145 -1 145 -28 0 -9 -7 -13 -20 -9 -11 3 -20 1
-20 -4 0 -5 5 -9 10 -9 6 0 10 -11 10 -25 0 -37 33 -46 78 -23 20 10 45 18 57
18 33 0 165 33 165 42 0 4 11 8 25 8 26 0 29 10 25 73 -2 32 29 39 37 7 3 -11
14 -20 24 -20 11 0 19 -7 19 -15 0 -9 -9 -15 -25 -15 -15 0 -25 -6 -25 -14 0
-10 13 -13 48 -11 26 1 66 3 90 4 28 1 42 5 42 15 0 16 80 32 89 18 3 -5 18
-12 33 -15 15 -4 34 -14 42 -23 15 -14 16 -14 16 0 0 9 7 16 15 16 8 0 15 -4
15 -10 0 -5 7 -7 15 -4 8 4 15 12 15 20 0 8 9 14 19 14 11 0 21 5 23 12 3 8
12 9 36 0 18 -6 32 -7 32 -3 0 4 20 8 45 8 25 0 45 -4 45 -8 0 -5 20 -7 45 -6
39 2 45 5 45 25 0 13 6 22 15 22 8 0 15 -6 15 -13 0 -24 35 -36 79 -26 44 10
114 7 143 -5 13 -6 15 -3 11 15 -6 23 -9 23 65 3 16 -5 22 -2 22 10 0 9 8 16
20 16 11 0 20 -7 20 -15 0 -24 51 -19 57 5 7 26 33 26 33 1 0 -29 15 -33 43
-11 31 24 85 26 102 3 11 -15 18 -15 61 -3 27 7 59 19 71 26 27 17 133 31 133
17 0 -6 27 -6 73 0 39 4 89 6 110 4 20 -3 37 -1 37 4 0 14 28 11 33 -3 3 -10
7 -10 19 -1 9 8 28 10 51 6 30 -4 37 -3 37 11 0 9 8 16 20 16 11 0 20 -7 20
-15 0 -11 7 -14 25 -9 17 4 27 1 31 -9 5 -14 10 -14 39 -1 19 8 44 14 55 14
11 0 20 5 20 11 0 7 11 9 30 6 36 -8 60 0 60 19 0 19 44 18 60 -1 19 -22 30
-18 41 15 10 26 39 43 39 22 0 -13 63 -32 103 -32 26 0 37 4 37 15 0 8 7 15
15 15 8 0 15 7 15 15 0 21 27 19 33 -4 3 -13 17 -20 48 -24 24 -3 45 -2 47 4
2 5 9 9 16 9 7 0 18 16 25 35 7 19 17 35 22 35 5 0 9 9 9 19 0 17 -4 18 -37
10 -51 -12 -103 -11 -103 1 0 14 -20 12 -54 -5 -15 -8 -48 -15 -72 -15 -23 0
-46 -4 -49 -10 -4 -6 6 -7 25 -4 26 6 30 4 30 -15 0 -17 -6 -21 -35 -21 -19 0
-35 -4 -35 -10 0 -5 -7 -10 -15 -10 -10 0 -15 11 -16 33 0 30 -1 31 -11 10
-13 -27 -38 -31 -38 -7 0 12 -5 10 -20 -9 -13 -16 -33 -27 -53 -29 -24 -2 -33
-8 -35 -25 -2 -13 -10 -23 -19 -23 -11 0 -14 7 -11 25 4 20 1 25 -15 25 -20 0
-21 19 -2 63 4 10 3 17 -4 17 -6 0 -11 -4 -11 -10 0 -5 -7 -10 -15 -10 -8 0
-15 5 -15 10 0 7 -13 9 -33 5 -58 -11 -106 54 -54 74 13 5 29 16 36 25 17 20
51 21 51 2 0 -12 6 -12 35 -3 31 9 39 8 65 -12 29 -21 30 -21 30 -2 0 12 11
24 30 32 24 11 28 18 23 37 -5 21 -2 23 18 20 16 -2 25 -11 27 -26 3 -18 8
-21 28 -16 17 4 24 2 24 -9 0 -8 13 -17 31 -21 50 -10 69 -7 69 9 0 8 5 15 10
15 6 0 10 7 10 15 0 44 69 12 71 -32 0 -14 2 -15 6 -3 9 22 24 30 61 30 25 0
32 -4 32 -20 0 -11 5 -20 10 -20 6 0 10 16 10 35 0 40 21 55 47 34 14 -12 15
-11 8 9 -8 26 21 62 50 62 13 0 15 -9 12 -49 -2 -41 0 -47 14 -44 9 3 20 0 23
-6 4 -6 16 -11 27 -11 10 0 19 -7 19 -15 0 -8 -4 -15 -10 -15 -18 0 -10 -18
10 -23 15 -4 20 0 20 14 0 10 5 19 10 19 23 0 8 18 -22 26 -26 8 -34 16 -36
37 -2 16 1 34 8 41 16 20 65 27 94 13 21 -10 25 -17 21 -36 -7 -28 8 -41 48
-41 19 0 27 -5 27 -17 0 -15 2 -15 9 -4 11 17 41 7 41 -14 0 -8 7 -15 15 -15
10 0 15 10 15 30 0 30 21 42 35 20 11 -18 23 -1 17 25 -3 18 0 25 11 25 9 0
18 -8 20 -17 4 -14 5 -12 6 5 1 12 7 22 16 22 8 0 15 6 15 14 0 19 39 31 53
17 15 -15 47 -14 47 2 0 21 -38 47 -70 47 -22 0 -30 5 -31 18 0 12 -3 10 -12
-8 -6 -14 -12 -27 -13 -28 -6 -10 -44 11 -44 24 0 8 -4 14 -10 14 -18 0 -11
35 10 50 27 20 25 28 -5 22 -18 -3 -25 0 -25 12 0 9 7 16 15 16 8 0 15 5 15
10 0 6 7 10 15 10 8 0 15 -7 15 -15 0 -8 5 -15 10 -15 6 0 10 6 10 14 0 20 7
23 63 31 l47 7 0 -31 c0 -20 5 -31 14 -31 9 0 12 7 9 20 -4 15 2 23 28 35 19
8 28 14 22 15 -7 0 -13 9 -13 20 0 11 -4 20 -10 20 -5 0 -10 -4 -10 -10 0 -5
-9 -10 -20 -10 -11 0 -20 7 -20 15 0 8 9 15 20 15 11 0 20 5 20 10 0 6 -4 10
-10 10 -5 0 -10 5 -10 11 0 6 -7 17 -15 25 -13 14 -15 11 -15 -20 0 -42 -24
-50 -34 -11 -4 14 -11 25 -16 25 -6 0 -10 7 -10 15 0 9 9 15 25 15 14 0 25 5
25 11 0 5 -5 7 -10 4 -16 -10 -50 5 -50 22 0 12 8 14 35 11 19 -2 35 0 35 4 0
4 6 8 14 8 8 0 16 5 18 12 5 15 37 3 45 -18 4 -10 0 -20 -10 -26 -10 -5 -17
-17 -17 -27 0 -14 13 -20 56 -28 50 -9 59 -8 75 8 11 11 26 19 34 19 8 0 15 7
15 16 0 11 6 15 20 11 13 -3 20 0 20 9 0 8 6 14 14 14 8 0 16 4 18 9 2 5 15
13 31 16 23 6 27 4 27 -13 0 -11 8 -22 20 -25 11 -3 20 -1 20 4 0 5 7 9 15 9
8 0 15 -7 15 -15 0 -8 6 -15 14 -15 8 0 21 7 30 15 19 19 31 19 52 -2 13 -13
19 -14 22 -5 5 17 29 15 36 -3 8 -22 36 -18 36 5 0 11 7 20 15 20 18 0 20 -36
3 -43 -8 -2 -9 -8 -4 -13 5 -5 11 -4 13 4 6 17 33 15 33 -3 0 -8 -4 -15 -10
-15 -5 0 -12 -11 -16 -25 -7 -26 -39 -35 -47 -12 -2 6 -8 0 -12 -15 -7 -29
-35 -39 -35 -14 0 20 -13 27 -30 16 -12 -8 -11 -12 8 -26 32 -22 27 -66 -8
-74 l-25 -6 28 -6 c15 -3 27 -1 27 3 0 20 79 -6 80 -26 1 -5 7 5 15 23 17 40
61 46 74 10 8 -22 9 -21 15 8 7 32 32 44 92 44 17 0 24 6 24 20 0 28 46 28 55
0 6 -20 35 -28 35 -10 0 6 9 10 20 10 23 0 27 -28 5 -36 -18 -7 -35 -66 -28
-95 3 -12 9 -16 12 -10 10 16 71 26 71 12 0 -7 9 -9 24 -5 13 3 27 1 30 -5 12
-18 23 -12 36 18 11 29 13 29 67 24 33 -4 58 -2 61 4 4 6 22 14 40 18 25 5 32
3 32 -9 0 -10 9 -16 21 -16 15 0 19 5 15 18 -2 9 -8 36 -11 60 -6 34 -4 42 9
42 8 0 19 -7 23 -15 11 -18 82 -9 90 11 3 8 11 14 19 14 8 0 14 7 14 15 0 8 9
15 20 15 11 0 20 -4 20 -8 0 -4 16 -6 35 -4 33 4 36 2 41 -27 5 -24 16 -36 45
-51 l39 -18 0 33 c0 33 -1 34 -35 28 -38 -6 -46 7 -20 33 10 11 25 13 51 8
l37 -7 -7 37 c-6 34 -5 36 19 36 14 0 33 -4 43 -9 9 -5 25 -12 35 -15 10 -3
17 -15 17 -31 0 -14 5 -25 10 -25 6 0 10 9 10 20 0 19 4 20 38 14 20 -4 39
-11 40 -15 2 -5 9 -9 15 -9 13 0 31 -36 41 -84 4 -16 15 -30 26 -33 17 -5 19
-12 15 -57 -8 -78 -13 -283 -7 -266 3 8 9 18 14 21 6 4 10 40 9 82 0 58 3 76
14 81 8 3 15 14 15 25 0 11 5 23 10 26 6 3 10 18 10 32 0 16 7 27 20 30 14 4
20 14 20 35 0 49 45 79 53 36 l4 -23 2 23 c0 12 8 22 16 22 14 0 20 27 16 72
-4 31 19 60 43 56 27 -6 46 13 46 47 0 20 5 25 25 25 21 0 25 -5 25 -30 0 -16
-4 -30 -8 -30 -4 0 -8 -15 -8 -34 0 -45 32 -58 41 -17 10 43 30 61 82 70 61
12 91 6 121 -25 16 -17 21 -30 16 -49 -4 -15 -2 -25 4 -25 6 0 12 -15 14 -32
3 -38 31 -46 36 -12 3 24 43 37 81 27 16 -4 21 -12 20 -32 -4 -58 0 -69 30
-76 18 -4 38 -1 50 7 16 10 23 10 29 2 4 -7 24 -14 46 -15 37 -4 45 1 62 39 1
2 18 0 38 -3 22 -5 36 -13 36 -22 0 -11 5 -13 18 -7 9 4 38 9 65 12 44 4 47 3
47 -21 0 -59 -12 -86 -39 -89 -20 -2 -27 -9 -29 -30 -2 -20 -9 -28 -23 -28
-25 0 -24 -8 6 -36 29 -27 31 -41 9 -72 -8 -12 -10 -22 -5 -22 6 0 11 -7 11
-15 0 -8 -6 -15 -14 -15 -8 0 -17 -9 -21 -19 -3 -11 -15 -23 -26 -26 -10 -4
-19 -13 -19 -21 0 -8 -7 -14 -15 -14 -8 0 -15 7 -15 15 0 8 -4 15 -10 15 -5 0
-10 -7 -10 -15 0 -8 -7 -15 -15 -15 -8 0 -15 9 -15 20 0 11 -6 20 -14 20 -8 0
-21 3 -29 6 -8 3 -24 -4 -34 -15 -23 -24 -77 -38 -87 -22 -11 16 -36 14 -30
-3 10 -25 56 -31 169 -23 61 5 145 8 188 7 45 -1 77 3 77 9 0 5 19 11 42 13
28 2 44 8 46 18 2 12 -7 15 -40 13 -24 -1 -55 3 -70 9 -23 8 -28 17 -28 43 0
18 6 38 14 44 8 7 17 22 20 35 4 18 15 25 45 30 31 5 40 11 45 31 6 24 36 36
36 15 0 -5 7 -10 15 -10 9 0 15 9 15 24 0 15 7 26 18 29 15 4 15 5 -2 6 -14 1
-17 7 -14 26 5 22 2 25 -23 25 -19 0 -29 5 -29 15 0 9 9 15 23 15 12 0 32 3
45 6 18 5 22 2 23 -17 1 -21 2 -21 6 -4 3 11 12 28 20 37 17 19 11 48 -11 48
-7 0 -17 11 -20 25 -4 14 -11 23 -17 20 -19 -12 -69 6 -69 25 0 10 5 22 10 25
20 13 9 21 -22 17 -44 -7 -98 24 -98 56 0 19 4 23 20 19 11 -3 23 -1 26 4 3 5
14 9 25 9 10 0 19 4 19 9 0 16 42 24 51 10 5 -9 10 -5 14 14 7 25 35 39 35 18
0 -23 65 -31 123 -16 70 18 67 18 67 1 0 -8 -13 -17 -30 -21 -37 -8 -40 -35
-5 -35 14 0 25 4 25 9 0 20 40 21 74 1 45 -24 43 -24 49 0 6 24 42 27 64 5 8
-9 13 -25 10 -35 -3 -11 -1 -20 5 -20 6 0 8 17 4 45 -7 43 -6 45 18 45 13 0
26 -6 29 -12 3 -10 10 -10 33 2 51 26 73 60 39 60 -8 0 -15 5 -15 10 0 15 -16
12 -34 -6 -37 -36 -77 4 -55 55 12 28 17 31 44 25 57 -11 63 -15 69 -44 3 -18
12 -30 21 -30 8 0 15 -8 15 -17 1 -16 2 -16 13 -2 7 8 20 18 30 22 9 3 17 16
17 27 0 11 6 20 14 20 15 0 26 -21 26 -51 0 -10 5 -19 10 -19 6 0 10 -7 10
-15 0 -10 11 -15 35 -15 31 0 35 -3 35 -25 0 -26 -24 -35 -33 -12 -4 7 -6 6
-6 -5 -1 -9 -7 -18 -13 -21 -9 -3 -6 -11 9 -26 25 -23 49 -19 59 11 4 14 13
19 32 17 15 -2 37 2 49 9 28 16 53 15 53 -1 0 -14 53 -67 68 -67 5 0 15 -7 22
-15 7 -8 16 -15 21 -15 5 0 9 7 9 15 0 8 7 15 15 15 8 0 15 -4 15 -9 0 -5 9
-7 20 -4 11 3 20 0 20 -6 0 -19 59 -12 81 10 11 11 27 18 35 15 8 -3 14 -1 14
4 0 6 6 10 13 10 8 0 19 12 26 26 8 19 17 25 31 21 17 -4 20 0 20 24 0 23 4
29 21 29 20 0 21 -4 16 -44 -6 -38 -4 -45 13 -49 17 -4 20 0 20 24 0 16 5 29
10 29 15 0 53 -23 66 -40 13 -16 94 -23 94 -8 0 13 30 9 30 -4 0 -7 6 -4 12 6
8 15 8 21 0 24 -7 2 -12 10 -12 18 0 9 11 14 34 14 19 0 38 5 41 10 11 17 34
11 57 -15 19 -22 28 -25 75 -21 30 2 57 6 60 9 3 4 25 4 49 0 37 -5 44 -3 44
11 0 22 30 21 31 -1 0 -11 3 -13 6 -5 5 14 33 17 33 3 0 -6 12 -6 31 1 21 7
33 7 38 1 3 -6 25 -10 49 -10 33 1 42 5 42 19 0 10 7 18 15 18 8 0 15 -4 15
-10 0 -5 5 -10 11 -10 15 0 39 -26 39 -42 0 -7 -14 -28 -32 -47 -27 -29 -29
-34 -15 -43 20 -11 22 -38 3 -38 -18 0 -30 -61 -14 -72 9 -5 14 1 16 22 2 21
9 30 25 32 22 3 26 13 45 123 6 36 10 40 40 43 27 3 32 0 33 -20 1 -17 3 -18
6 -6 5 19 26 26 83 31 28 2 36 7 40 27 4 20 12 25 35 25 17 1 38 4 48 9 9 4
33 6 52 4 19 -2 35 0 35 4 0 4 7 8 15 8 8 0 15 -4 15 -10 0 -5 20 -10 44 -10
41 0 43 1 38 25 -3 18 0 25 11 25 8 0 17 9 20 20 3 11 12 20 21 20 9 0 16 -8
16 -20 0 -11 5 -20 10 -20 6 0 10 -7 10 -15 0 -8 -7 -15 -15 -15 -8 0 -15 7
-15 15 0 8 -4 15 -10 15 -5 0 -10 -12 -10 -26 0 -25 2 -26 40 -20 39 6 40 6
40 -23 0 -16 3 -36 6 -44 5 -14 8 -13 25 1 10 9 19 22 19 29 0 23 22 14 55
-22 25 -26 34 -31 39 -20 3 8 14 15 25 15 11 0 21 9 25 24 8 34 59 41 162 20
12 -2 24 -13 27 -25 l6 -21 27 21 c32 25 62 27 71 5 3 -9 2 -45 -4 -80 -5 -35
-5 -64 -1 -64 18 0 6 -39 -17 -54 -20 -13 -24 -22 -19 -41 3 -14 2 -25 -3 -25
-10 0 -29 -63 -39 -129 -5 -34 -3 -42 7 -39 20 6 42 57 41 91 0 21 5 31 18 34
11 3 22 18 25 34 9 38 47 40 63 4 14 -30 16 -75 4 -75 -11 0 -4 -58 10 -87 6
-13 19 -23 29 -23 23 0 50 -44 54 -89 2 -20 6 -44 10 -54 5 -11 -2 -31 -19
-57 -28 -43 -25 -71 8 -69 16 1 17 2 4 6 -25 6 -23 33 2 33 20 0 24 9 21 41
-1 10 10 21 28 27 38 13 53 58 27 78 -10 7 -16 22 -14 36 3 20 8 23 41 20 35
-3 38 -1 44 29 3 19 13 34 24 36 15 4 17 11 13 32 -9 36 -19 45 -51 42 -116
-9 -127 -8 -138 24 -13 38 -34 62 -60 66 -17 4 -19 13 -21 87 -2 75 0 82 17
82 12 0 19 7 19 18 0 10 5 23 12 30 9 9 9 15 0 24 -17 17 -15 36 9 61 l20 22
-20 3 c-30 5 -51 40 -51 84 0 49 19 50 76 3 40 -33 43 -39 42 -79 -2 -43 24
-88 40 -71 4 4 1 10 -5 12 -22 8 -14 50 12 67 23 15 24 18 10 32 -8 9 -15 20
-15 26 0 14 40 48 57 48 8 0 26 11 41 25 15 14 21 25 14 25 -8 0 -12 9 -10 22
4 29 67 48 80 24 5 -9 16 -16 23 -16 8 0 15 -7 15 -15 0 -8 -6 -15 -12 -15 -8
0 -14 -15 -15 -35 -1 -19 2 -35 6 -35 17 0 41 38 41 63 0 25 3 27 44 27 41 0
45 -2 51 -30 4 -16 4 -34 1 -39 -7 -10 3 -41 13 -41 3 0 11 10 16 23 7 15 23
25 50 30 22 5 48 13 57 18 10 5 31 9 48 9 23 0 30 -4 30 -19 0 -11 5 -23 10
-26 6 -3 10 -23 10 -43 0 -47 11 -64 30 -52 28 18 40 11 40 -23 0 -18 -5 -38
-12 -45 -9 -10 -9 -16 4 -28 15 -15 16 -14 23 5 3 11 14 21 23 22 11 0 12 3 5
6 -18 7 -16 43 1 43 15 0 21 21 31 113 5 40 11 57 21 57 8 0 14 5 14 10 0 18
30 11 48 -11 9 -12 23 -27 30 -34 14 -16 17 -125 2 -125 -13 0 -13 -37 0 -45
39 -24 73 80 44 139 -20 42 -18 53 16 64 16 6 35 22 42 36 6 15 15 26 19 26 4
0 14 12 21 28 17 35 63 39 62 5 0 -13 5 -23 13 -23 7 0 13 4 13 8 0 5 32 9 70
9 l70 0 0 -29 c0 -15 4 -28 9 -28 6 0 8 -35 7 -81 l-3 -81 38 6 c27 4 42 2 54
-10 15 -15 17 -15 34 0 16 14 17 22 8 46 -8 21 -8 39 1 67 6 21 14 49 18 61 4
19 11 23 27 18 12 -3 28 -6 35 -6 8 0 12 -16 12 -46 0 -38 4 -47 21 -51 17 -5
20 -11 14 -32 -17 -71 -18 -81 -1 -81 19 0 22 -26 4 -33 -10 -4 -10 -6 0 -6 6
-1 12 -8 12 -16 0 -8 4 -15 8 -15 5 0 15 -17 21 -38 11 -33 11 -43 -4 -71 -16
-31 -16 -33 2 -29 10 2 17 11 15 19 -1 9 5 29 13 45 19 37 19 80 0 88 -20 7
-19 46 1 46 13 0 15 7 10 36 -5 22 -3 41 5 50 7 9 10 32 6 63 -5 39 -2 51 14
64 10 10 22 17 25 17 3 0 22 11 42 25 20 14 47 25 59 25 12 0 24 4 27 9 7 11
-17 21 -50 21 -13 0 -24 5 -24 10 0 6 -7 10 -15 10 -20 0 -20 44 0 60 8 6 31
13 52 14 21 2 46 7 56 11 21 9 87 -2 87 -15 0 -6 7 -10 15 -10 11 0 15 -12 15
-45 l0 -45 -37 -1 c-31 -2 -33 -3 -10 -6 15 -2 27 -8 27 -13 0 -4 8 -6 19 -3
13 3 17 11 14 24 -3 10 -1 19 5 19 6 0 14 10 18 22 3 12 12 27 18 33 13 14
105 26 135 18 24 -6 29 -33 6 -33 -8 0 -15 -9 -15 -20 0 -11 4 -20 9 -20 5 0
11 -13 14 -28 5 -26 9 -28 41 -24 20 2 39 8 42 13 9 16 39 10 52 -11 8 -13 23
-20 45 -20 52 0 62 14 22 30 -19 8 -35 19 -35 24 0 12 45 36 66 36 6 0 15 11
18 25 4 15 13 25 25 25 10 0 33 3 50 6 24 5 31 3 31 -10 0 -9 -4 -16 -8 -16
-9 0 -36 -69 -30 -75 9 -9 68 39 68 55 0 31 24 43 67 31 21 -6 49 -11 62 -11
25 0 61 -33 61 -57 0 -21 20 -15 30 10 21 51 37 60 102 62 35 1 71 5 80 9 10
5 27 0 42 -10 20 -12 38 -15 71 -11 25 4 45 3 45 -2 0 -14 93 -27 133 -19 21
4 45 4 54 0 8 -5 25 -7 38 -4 18 3 25 13 30 43 4 21 12 39 18 39 29 0 56 -13
60 -29 4 -14 5 -14 6 2 1 20 27 23 34 5 3 -7 6 -3 6 8 2 36 38 72 79 78 46 8
271 -11 287 -24 7 -5 14 -7 18 -4 6 7 136 -34 155 -50 10 -7 16 -6 22 3 5 10
19 12 44 7 33 -6 36 -5 36 17 0 30 -38 57 -80 57 -23 0 -30 4 -30 20 0 12 7
20 16 20 8 0 22 7 30 15 17 16 54 20 54 6 0 -15 78 -24 210 -23 68 1 129 -3
135 -7 17 -14 85 -1 85 16 0 12 8 14 40 9 33 -5 40 -3 40 10 0 12 7 15 30 12
16 -2 31 0 33 5 2 6 19 5 42 -4 22 -7 46 -12 52 -11 7 2 31 -2 54 -8 52 -14
249 -39 351 -45 43 -2 82 -6 87 -9 11 -7 137 -25 220 -32 76 -6 101 1 101 26
0 17 6 18 73 13 60 -4 147 -27 217 -57 13 -5 15 2 12 39 l-4 46 61 -2 c58 -2
90 6 60 15 -8 2 -34 11 -59 19 -74 25 -157 47 -178 47 -11 0 -22 4 -24 8 -1 5
-46 22 -98 38 -70 22 -96 34 -98 48 -4 17 1 18 47 14 36 -4 51 -2 51 7 0 27
25 35 81 26 32 -5 55 -5 57 0 6 16 51 9 61 -9 12 -22 134 -52 211 -52 27 0 52
-4 55 -10 3 -6 17 -10 31 -10 14 0 34 -4 44 -10 22 -12 50 -3 50 16 0 21 40
17 41 -3 0 -14 2 -15 6 -3 8 22 24 30 57 30 28 0 53 -6 161 -36 63 -17 225
-21 225 -5 0 5 12 11 28 14 21 4 30 14 40 48 15 47 11 57 -11 34 -24 -23 -45
-18 -49 11 -2 20 -12 29 -43 40 -22 7 -46 14 -54 14 -7 0 -26 11 -43 25 -22
19 -41 25 -76 25 -26 0 -63 5 -82 10 -19 5 -55 14 -80 20 -25 7 -54 16 -65 21
-11 5 -40 16 -65 24 -25 9 -57 29 -72 45 -19 21 -36 30 -57 30 -25 0 -31 4
-31 21 0 21 3 21 72 14 l73 -7 -28 26 c-15 14 -27 34 -27 46 0 17 6 20 40 20
22 0 40 5 40 10 0 6 9 10 20 10 12 0 20 -7 20 -17 0 -12 8 -19 23 -19 137 -9
187 -8 187 4 0 16 18 15 67 -2 21 -7 64 -15 94 -16 68 -4 150 1 127 7 -10 2
-18 8 -18 11 0 13 -54 31 -125 42 -45 7 -78 18 -92 32 -16 15 -36 20 -75 21
-29 0 -59 7 -66 14 -7 7 -22 13 -33 13 -11 0 -29 4 -39 10 -10 5 -45 11 -77
12 -55 3 -58 4 -61 31 -2 18 -12 32 -28 39 -13 6 -24 15 -24 20 0 8 -44 30
-95 48 -11 4 -56 25 -100 46 -68 33 -80 43 -83 67 -2 19 1 27 12 27 8 0 18 -4
21 -10 4 -6 13 -5 25 2 16 10 26 8 58 -10 22 -12 51 -22 65 -22 14 0 29 -4 32
-10 10 -15 25 -12 25 6 0 13 7 15 42 9 24 -4 52 -13 63 -20 12 -8 48 -12 90
-10 110 3 134 21 65 49 -45 18 -56 54 -20 63 46 12 11 43 -48 43 -19 0 -23 5
-20 23 5 35 64 37 94 2 13 -16 25 -22 29 -16 10 17 30 13 58 -13 15 -14 29
-20 32 -15 8 12 52 11 77 -2 14 -7 23 -8 27 -1 8 13 84 13 92 1 3 -6 50 -17
105 -25 54 -8 106 -16 114 -19 8 -2 26 2 40 10 l25 14 -38 16 c-20 8 -58 18
-82 22 -25 3 -45 9 -45 13 0 4 -9 10 -20 13 -28 7 -27 47 1 47 11 0 29 -4 39
-10 13 -7 24 -5 43 10 28 22 47 26 47 9 0 -7 13 -9 38 -4 23 4 53 0 81 -10 24
-8 54 -15 67 -15 13 0 43 -7 67 -15 28 -10 53 -12 72 -6 l30 8 -27 13 c-23 11
-28 20 -28 48 l0 35 85 -5 c47 -2 91 -10 97 -16 18 -18 50 -15 46 4 -4 21 -21
31 -74 44 -22 5 -51 19 -64 30 -22 19 -48 24 -97 20 -16 -1 -23 4 -23 17 0 23
-73 73 -109 73 -9 0 -27 12 -40 25 -13 14 -27 25 -32 25 -5 0 -9 7 -9 16 0 14
8 16 47 10 26 -3 51 -12 55 -19 6 -9 10 -9 17 1 6 11 23 8 87 -13 43 -15 82
-31 85 -37 4 -6 28 -12 53 -13 44 -1 46 0 46 27 0 15 6 28 13 29 6 1 -13 7
-43 15 -30 7 -63 11 -73 8 -11 -4 -28 4 -45 21 -20 20 -33 25 -54 21 -43 -9
-98 19 -104 54 -6 26 -9 28 -35 23 -19 -3 -29 -1 -29 6 0 7 -9 9 -26 5 -15 -4
-29 -2 -33 4 -3 6 -29 17 -56 23 -28 7 -57 19 -66 26 -8 7 -19 13 -23 13 -4 0
-40 15 -79 34 -40 19 -91 40 -115 47 -38 11 -43 15 -38 35 5 20 1 25 -34 34
-22 6 -40 15 -40 19 0 5 -9 11 -20 14 -28 7 -26 45 3 51 42 7 86 5 92 -4 4 -6
19 -10 36 -10 16 0 29 -5 29 -11 0 -7 11 -8 30 -4 17 4 30 3 30 -2 0 -5 12
-16 28 -25 20 -12 37 -14 70 -8 53 9 60 15 32 30 -53 28 -79 70 -45 70 8 0 15
7 15 15 0 12 8 14 39 9 35 -6 39 -4 45 20 9 37 34 33 38 -6 3 -30 7 -33 53
-43 33 -7 60 -8 78 -2 23 8 37 5 67 -12 21 -11 54 -21 74 -21 20 0 36 -4 36
-10 0 -5 7 -10 15 -10 14 0 13 3 -1 25 -18 28 -13 55 11 55 8 0 15 7 15 15 0
8 7 15 15 15 9 0 15 -9 15 -22 0 -17 3 -19 9 -9 5 8 19 12 35 9 18 -4 26 -1
26 8 0 24 28 15 34 -11 6 -24 20 -30 60 -26 11 1 22 -2 25 -6 3 -5 20 -15 36
-24 68 -35 121 -62 137 -70 10 -5 23 -9 30 -9 7 0 26 -7 41 -15 26 -13 33 -13
77 6 66 28 76 55 19 50 -9 -1 -19 5 -22 14 -4 8 -13 15 -22 15 -8 0 -15 7 -15
15 0 8 -13 21 -30 30 -17 9 -30 11 -30 5 0 -5 -7 -10 -15 -10 -8 0 -15 9 -15
20 0 13 -10 24 -25 30 -26 10 -31 29 -15 60 8 16 5 19 -21 25 -17 4 -46 7 -65
7 -19 0 -34 4 -34 8 0 5 -15 11 -32 15 -50 10 -88 28 -88 42 0 7 -7 10 -15 7
-8 -4 -15 -15 -15 -25 0 -10 -7 -19 -15 -19 -9 0 -15 9 -15 25 0 14 5 25 10
25 6 0 10 9 10 20 0 12 -7 20 -17 20 -31 0 -123 24 -123 32 0 5 -9 8 -19 8
-30 0 -51 11 -51 26 0 10 -7 13 -25 8 -18 -4 -27 -1 -31 10 -4 9 -18 16 -34
16 -16 0 -32 5 -35 10 -3 6 -15 10 -26 10 -10 0 -19 5 -19 10 0 6 -15 10 -34
10 -19 0 -37 4 -40 9 -3 5 -18 11 -33 14 -127 25 -169 39 -185 61 -3 5 -17 10
-30 12 -27 2 -133 31 -163 43 -11 5 -45 14 -75 21 -77 17 -110 32 -110 51 0
10 -13 22 -30 28 -17 5 -33 16 -36 24 -4 11 -26 14 -97 13 -57 -1 -101 3 -117
11 -14 7 -31 13 -37 13 -7 0 -13 4 -13 9 0 4 -22 6 -50 3 -41 -4 -50 -2 -50
11 0 16 -35 33 -58 28 -8 -1 -23 6 -34 16 -12 11 -31 16 -49 15 -19 -2 -29 1
-29 10 0 8 -14 14 -37 15 -20 1 -39 5 -42 10 -3 4 -28 9 -56 10 -27 2 -79 11
-115 22 -89 26 -198 53 -238 58 -18 3 -35 9 -38 14 -3 5 -16 9 -29 9 -21 0
-35 17 -35 42 0 7 14 8 35 5 19 -3 35 -2 35 4 0 5 -4 9 -10 9 -5 0 -12 11 -16
25 -7 30 -24 33 -24 4 0 -18 -4 -20 -45 -13 -44 6 -45 5 -45 -20 0 -20 -5 -26
-21 -26 -16 0 -20 5 -16 19 4 18 -23 51 -43 51 -6 0 -10 9 -10 20 0 15 -7 20
-29 20 -16 0 -31 6 -34 13 -3 10 -9 10 -26 0 -11 -7 -32 -13 -46 -13 -21 0
-25 5 -25 29 0 21 -6 32 -20 36 -17 6 -19 12 -13 48 3 23 12 48 20 55 21 21
16 35 -9 26 -13 -5 -71 -7 -130 -6 -93 2 -108 0 -108 -14 0 -27 -27 -44 -73
-44 -36 0 -46 4 -56 24 -16 29 -49 37 -124 29 -47 -5 -58 -3 -63 11 -7 17 -34
22 -34 6 0 -12 -37 -13 -44 -1 -8 12 -66 20 -72 9 -10 -16 -47 -7 -70 17 -18
19 -30 24 -48 19 -23 -5 -25 -2 -31 40 -6 37 -12 47 -31 52 -29 7 -44 -2 -44
-26 0 -25 -8 -29 -80 -36 -39 -3 -66 -1 -75 6 -8 6 -44 11 -82 10 -118 -2
-217 7 -248 24 -16 8 -40 13 -52 10 -14 -4 -23 -2 -23 5 0 7 -9 9 -24 5 -13
-3 -27 -1 -30 5 -11 16 -46 13 -46 -4 0 -36 -49 1 -50 38 0 20 -4 21 -30 5
-17 -11 -22 -10 -29 1 -7 12 -14 10 -37 -8 -23 -18 -35 -21 -73 -15 -25 3 -56
12 -68 20 -12 8 -46 14 -76 14 -29 0 -57 4 -63 10 -11 11 -54 2 -54 -11 0 -5
-7 -9 -15 -9 -8 0 -19 -8 -24 -18 -6 -11 -36 -24 -86 -35 -70 -17 -79 -17
-100 -3 -15 10 -46 16 -80 16 -30 0 -55 5 -55 10 0 14 -56 13 -79 -2 -14 -9
-23 -8 -42 5 -13 10 -32 17 -41 17 -23 0 -42 41 -35 72 4 13 20 32 37 43 17
11 30 29 30 41 0 11 5 25 12 32 9 9 7 12 -9 12 -15 0 -22 8 -27 31 -3 17 -3
35 0 40 9 15 44 10 44 -6 0 -8 5 -15 11 -15 31 0 50 -65 27 -89 -11 -10 -8
-10 14 -2 19 7 44 7 83 -2 48 -10 59 -9 84 6 40 24 65 22 58 -3 -4 -16 0 -20
19 -20 13 0 24 5 24 10 0 6 7 10 15 10 8 0 15 -4 15 -9 0 -15 68 -33 99 -26
17 3 32 2 36 -4 7 -12 83 -4 102 11 7 5 21 7 31 4 26 -8 37 20 17 40 -8 9 -15
24 -15 35 0 14 7 19 28 19 39 0 44 8 27 40 -17 33 -32 40 -68 33 -14 -3 -40 0
-57 6 -31 10 -80 -2 -80 -21 0 -4 -10 -8 -22 -8 -15 0 -19 -3 -11 -8 10 -7 10
-19 1 -60 -15 -63 -38 -70 -38 -12 0 22 5 40 10 40 6 0 10 7 10 15 0 8 -4 15
-9 15 -5 0 -11 9 -14 20 -8 32 -46 26 -58 -10 -12 -34 -24 -37 -51 -13 -16 14
-21 15 -28 4 -13 -23 -70 5 -70 34 0 13 -7 25 -15 29 -10 4 -15 -1 -15 -14 0
-11 -7 -20 -15 -20 -8 0 -15 5 -15 10 0 20 -24 36 -47 32 -24 -5 -43 -22 -24
-22 6 0 11 -7 11 -15 0 -8 -7 -15 -15 -15 -8 0 -15 6 -15 14 0 9 -7 12 -18 9
-9 -2 -36 0 -60 5 -24 6 -42 6 -42 1 0 -5 -7 -9 -15 -9 -8 0 -15 7 -15 15 0 9
-9 15 -24 15 -13 0 -38 3 -55 6 -31 6 -32 6 -25 -20 4 -17 2 -26 -6 -26 -14 0
-34 -19 -43 -42 -5 -13 -16 -17 -44 -16 -44 1 -83 -9 -83 -23 0 -5 -7 -9 -15
-9 -22 0 -18 20 7 42 21 18 21 21 7 46 -21 38 -45 40 -52 3 -8 -37 -30 -45
-102 -36 -45 6 -55 11 -55 26 0 12 7 19 20 19 11 0 20 4 20 9 0 5 3 17 7 27 6
16 4 16 -25 -2 -18 -10 -32 -24 -32 -31 0 -25 -23 -61 -47 -72 -34 -15 -63
-14 -63 4 0 10 -10 15 -34 15 -19 0 -38 5 -41 11 -4 6 -22 8 -45 4 -24 -4 -46
-2 -59 7 -17 10 -23 10 -29 1 -5 -7 -22 -16 -40 -19 -41 -8 -53 17 -28 59 13
24 14 32 4 38 -18 12 -36 11 -40 -2 -2 -7 -31 -17 -63 -24 -54 -10 -60 -14
-67 -43 -10 -38 -40 -43 -54 -11 -9 20 -11 20 -26 5 -25 -24 -38 -19 -38 14 0
17 -4 30 -10 30 -16 0 -12 28 5 37 13 8 13 11 0 28 -14 19 -14 19 -15 1 0 -10
-5 -36 -12 -57 -9 -33 -15 -39 -39 -39 -15 0 -31 -4 -34 -10 -3 -5 -22 -10
-41 -10 -30 0 -35 4 -40 30 -5 25 -11 30 -34 30 -16 0 -36 3 -45 6 -11 5 -18
0 -22 -15 -7 -27 -29 -27 -36 -1 -3 12 -14 20 -25 20 -11 0 -23 6 -25 13 -4 9
-8 9 -15 -2 -7 -10 -21 -12 -47 -8 -46 8 -65 23 -65 53 0 22 -4 24 -45 24 -25
0 -54 -5 -65 -12 -15 -10 -30 -7 -82 14 -35 14 -64 22 -66 17 -2 -5 -21 -9
-43 -9 -32 0 -39 -3 -39 -20 0 -11 -7 -20 -15 -20 -9 0 -15 9 -15 24 0 25 -25
43 -35 26 -4 -6 -1 -10 4 -10 17 0 12 -22 -8 -47 -17 -20 -25 -22 -66 -16 -37
5 -49 11 -56 29 -8 24 -29 33 -29 14 0 -12 -47 -13 -54 -1 -8 12 -45 2 -79
-22 -25 -17 -44 -19 -153 -18 -118 1 -124 0 -124 -19 0 -29 -60 -29 -67 0 -4
16 -14 20 -43 20 -24 0 -40 -5 -44 -15 -8 -22 -44 -19 -51 4 -8 25 -48 34
-108 22 -32 -6 -54 -16 -64 -31 -13 -18 -22 -21 -52 -16 -20 3 -55 15 -78 26
-50 24 -61 25 -84 4 -15 -14 -22 -14 -69 2 -43 14 -55 15 -76 4 -20 -11 -27
-11 -42 3 -13 12 -36 17 -75 17 -53 0 -56 1 -59 28 -2 19 -9 27 -23 27 -15 0
-21 -8 -25 -35 -5 -32 -8 -35 -35 -32 -92 8 -139 4 -150 -12 -7 -9 -24 -16
-39 -16 -14 0 -26 -4 -26 -10 0 -15 -61 -12 -79 3 -9 7 -32 18 -53 25 -32 11
-40 10 -74 -8 -21 -12 -48 -20 -61 -17 -13 2 -26 0 -29 -4 -8 -13 -44 -11 -44
2 0 8 -5 8 -15 -1 -17 -14 -65 -5 -65 13 0 8 -3 8 -9 -2 -6 -8 -27 -14 -55
-15 -27 -1 -48 -6 -51 -13 -3 -8 -25 -13 -60 -13 -34 0 -55 -4 -55 -11 0 -6
-9 -9 -19 -6 -23 6 -35 -28 -25 -68 4 -18 1 -27 -10 -31 -10 -4 -16 -18 -16
-35 0 -43 -26 -37 -35 8 -5 29 -3 40 10 49 14 10 14 15 4 33 -12 17 -10 23 10
41 16 13 19 20 10 20 -8 0 -32 9 -54 20 -21 11 -64 24 -94 30 -79 14 -204 15
-209 1 -5 -16 -58 -13 -72 4 -9 11 -16 13 -24 5 -15 -15 -36 -12 -36 6 0 8 -4
12 -10 9 -5 -3 -10 -17 -10 -29 0 -46 -39 -56 -152 -41 -31 5 -48 12 -48 21 0
14 -8 16 -72 17 -56 0 -70 -8 -62 -38 5 -21 3 -25 -15 -25 -12 0 -21 6 -21 15
0 8 -4 15 -9 15 -5 0 -7 -8 -4 -19 3 -13 -2 -20 -19 -24 -36 -10 -40 -9 -36
16 2 13 -5 29 -19 40 -12 10 -23 32 -25 50 -3 28 -7 32 -35 35 -18 2 -33 8
-33 14 0 6 -11 1 -24 -11 -27 -25 -59 -25 -64 1 -2 12 8 20 37 29 39 12 52 31
31 44 -15 9 -12 35 4 35 17 0 32 58 19 71 -6 6 -27 5 -57 -3 -40 -11 -48 -10
-56 2 -8 12 -10 10 -10 -7z m-1615 -683 c7 -41 10 -48 13 -27 4 34 32 37 32 2
0 -14 -4 -25 -10 -25 -5 0 -10 -7 -10 -15 0 -9 -9 -15 -24 -15 -13 0 -26 -6
-28 -12 -8 -22 -58 8 -58 34 0 13 -7 32 -15 42 -8 11 -15 28 -15 37 0 20 43
39 80 36 22 -2 26 -8 35 -57z m-5862 -11 l57 -12 -3 -56 c-2 -46 -6 -57 -24
-67 -13 -6 -34 -23 -47 -37 -19 -21 -35 -27 -66 -27 -37 0 -40 2 -40 29 0 16
-7 34 -15 41 -28 23 -18 55 20 69 26 9 35 18 35 35 0 40 4 41 83 25z m-6310
-638 c10 -28 13 -29 59 -24 l48 6 0 -52 c0 -46 -3 -53 -26 -63 -21 -10 -27 -9
-35 3 -5 8 -7 22 -5 31 6 25 -11 32 -30 14 -14 -15 -14 -16 1 -16 13 0 16 -6
13 -25 -3 -14 -1 -25 3 -25 5 0 9 -7 9 -16 0 -11 -6 -15 -20 -11 -15 4 -22 -1
-26 -19 -7 -28 -44 -33 -64 -9 -7 8 -21 15 -31 15 -11 0 -19 6 -19 14 0 7 -9
20 -21 27 -18 12 -20 20 -13 67 5 42 10 52 25 52 14 0 19 -8 20 -27 1 -22 3
-19 11 15 5 24 15 42 23 42 7 0 15 7 19 15 10 27 47 18 59 -14z m-3893 -2106
c0 -19 5 -35 10 -35 6 0 10 7 10 16 0 11 8 14 33 12 24 -2 33 -8 35 -25 2 -12
9 -24 17 -26 11 -5 11 -1 -1 21 -16 31 -18 62 -4 62 16 0 50 -33 50 -48 0 -10
8 -12 30 -7 23 5 30 3 30 -9 0 -9 -7 -16 -15 -16 -8 0 -15 -5 -15 -10 0 -18
30 -70 40 -70 6 0 10 -7 10 -15 0 -8 -7 -15 -15 -15 -11 0 -14 -7 -9 -24 10
-42 -4 -65 -44 -72 -54 -10 -70 -20 -44 -28 32 -10 39 -47 13 -64 -11 -8 -21
-21 -21 -29 0 -11 -7 -13 -30 -8 -19 4 -30 3 -30 -4 0 -6 -7 -11 -15 -11 -8 0
-15 7 -15 15 0 8 -3 15 -6 15 -3 0 -12 -7 -20 -15 -30 -30 -52 -19 -60 31 -5
37 -3 47 12 59 18 13 18 14 2 20 -10 4 -18 12 -18 19 0 31 -23 86 -35 86 -8 0
-15 7 -15 15 0 8 7 15 15 15 8 0 15 5 15 10 0 6 12 10 28 11 15 0 21 3 15 6
-15 6 -17 33 -3 33 6 0 10 7 10 15 0 8 -4 15 -10 15 -5 0 -10 7 -10 15 0 8 7
15 15 15 11 0 13 8 9 30 -6 26 -4 30 15 30 17 0 21 -6 21 -35z m490 -200 c0
-8 -6 -15 -13 -15 -9 0 -12 -10 -9 -32 3 -20 0 -35 -10 -42 -8 -6 -17 -24 -20
-40 -5 -22 -2 -30 13 -33 11 -3 19 -14 19 -27 0 -11 7 -34 16 -51 8 -16 18
-51 21 -77 5 -44 4 -48 -15 -48 -11 0 -24 5 -27 10 -7 12 -79 45 -117 54 -16
3 -28 11 -28 16 0 6 -7 10 -15 10 -23 0 -18 25 8 39 18 9 23 19 19 37 -2 14 0
24 7 24 6 0 11 9 11 20 0 11 5 20 10 20 6 0 10 5 10 10 0 6 -7 10 -16 10 -13
0 -15 6 -9 27 3 15 12 31 18 35 9 6 8 11 -3 18 -17 11 -28 -8 -29 -52 -1 -23
-6 -28 -26 -28 -16 0 -25 6 -25 15 0 8 5 15 10 15 6 0 10 7 10 15 0 8 -4 15
-10 15 -5 0 -10 -4 -10 -10 0 -5 -7 -10 -16 -10 -13 0 -15 6 -9 27 4 16 7 28
8 29 11 6 103 24 126 24 23 0 31 -5 31 -17 0 -14 3 -13 18 5 20 25 52 29 52 7z
m19887 -735 c3 -11 9 -17 14 -14 17 10 49 -7 49 -27 0 -10 4 -19 9 -19 5 0 11
-12 13 -27 2 -20 9 -29 26 -31 16 -3 22 -10 22 -28 0 -24 -3 -25 -32 -19 -18
4 -37 14 -41 21 -11 19 -47 18 -47 -1 0 -21 -30 -19 -31 3 -1 16 -2 16 -6 0
-6 -25 -33 -23 -33 2 0 11 3 20 8 20 4 0 6 31 5 70 -2 65 -1 70 18 70 12 0 23
-8 26 -20z m-4616 -200 c11 -6 19 -21 19 -36 0 -17 7 -28 20 -31 11 -3 20 -12
20 -19 0 -8 5 -14 10 -14 6 0 10 -7 10 -15 0 -15 10 -19 43 -16 28 3 22 -37
-7 -45 -14 -3 -29 -3 -35 0 -5 3 -11 1 -13 -6 -3 -7 -14 -9 -31 -4 -22 5 -27
12 -27 36 0 37 -21 39 -37 5 -6 -14 -7 -25 -2 -25 5 0 9 -7 9 -15 0 -21 -66
-21 -74 1 -10 27 -7 44 9 44 9 0 18 12 22 30 3 17 12 30 19 30 8 0 11 6 7 16
-3 9 0 20 8 26 11 7 11 11 2 15 -16 6 -17 33 -2 33 6 0 19 -5 30 -10z m-3091
-84 c0 -31 30 -44 37 -16 6 24 19 25 39 6 17 -18 18 -33 2 -39 -9 -4 -4 -14
15 -31 33 -30 32 -60 -1 -64 -26 -4 -32 -42 -6 -42 12 0 14 -7 9 -29 -5 -25
-3 -29 22 -34 15 -3 34 0 41 6 10 8 19 8 33 -1 15 -10 24 -9 42 2 35 22 84 29
90 13 4 -11 16 -12 63 -3 43 7 59 7 61 -1 3 -9 12 -9 29 -2 44 16 57 12 50
-16 -6 -22 -3 -25 21 -24 16 0 22 3 16 6 -16 6 -17 33 -3 33 6 0 30 -9 53 -20
25 -12 43 -16 45 -10 6 17 32 11 32 -7 0 -15 2 -14 20 2 13 12 30 16 54 13 20
-2 37 0 39 5 1 5 37 11 79 14 l75 5 5 -34 c3 -18 3 -50 0 -71 -4 -36 -7 -38
-31 -32 -14 4 -27 11 -29 16 -2 5 -22 9 -45 9 -27 0 -37 -3 -29 -9 23 -14 10
-46 -19 -49 -21 -2 -28 2 -33 21 -8 35 -34 44 -28 10 4 -20 1 -24 -14 -21 -10
2 -21 14 -25 28 -7 24 -7 24 -8 3 -1 -24 -25 -31 -37 -12 -5 8 -9 8 -14 -1 -4
-6 -26 -13 -49 -13 -25 -1 -41 -7 -41 -14 0 -7 -6 -13 -14 -13 -26 0 -46 12
-46 27 0 36 -70 64 -99 40 -9 -8 -35 -17 -58 -21 -38 -5 -43 -4 -43 13 0 17
-4 18 -37 10 -53 -12 -63 -11 -63 6 0 10 -10 15 -30 15 -18 0 -30 -5 -30 -13
0 -23 -39 -47 -76 -47 -27 0 -37 -5 -41 -20 -6 -23 -10 -24 -46 -7 -28 12 -36
42 -14 50 9 4 8 8 -3 16 -12 9 -16 5 -18 -22 -4 -41 -13 -50 -46 -41 -26 6
-36 29 -15 36 10 3 2 38 -10 38 -3 0 -13 -5 -21 -11 -11 -8 -12 -12 -2 -16 17
-7 15 -43 -3 -43 -8 0 -15 4 -15 10 0 5 -13 7 -30 4 -23 -5 -30 -3 -30 10 0 9
8 16 20 16 11 0 20 7 20 15 0 11 -8 13 -30 9 -33 -7 -34 -5 -24 59 4 22 12 37
20 37 8 0 14 6 14 14 0 9 12 14 35 14 23 0 35 -5 35 -14 0 -8 5 -14 11 -14 7
0 9 -10 5 -27 -4 -16 -3 -23 1 -17 4 6 20 14 36 18 23 5 27 12 27 41 0 32 2
35 30 35 20 0 30 -5 30 -15 0 -19 17 -19 36 0 19 18 9 38 -15 30 -10 -3 -31 1
-47 10 -17 9 -30 11 -32 5 -6 -16 -32 -12 -32 5 0 8 6 15 14 15 10 0 12 7 8
23 -5 18 -7 19 -10 5 -2 -10 -10 -18 -18 -18 -10 0 -14 13 -14 50 0 36 4 50
14 50 9 0 12 7 9 20 -4 14 0 20 11 20 9 0 16 -4 16 -10 0 -18 18 -10 23 10 7
29 37 26 37 -4z m1010 -11 c0 -8 7 -15 15 -15 8 0 15 -7 15 -15 0 -9 -9 -15
-25 -15 -25 0 -35 -23 -14 -35 12 -8 49 31 49 52 0 7 7 13 15 13 8 0 15 -4 15
-10 0 -5 7 -10 15 -10 21 0 18 -40 -5 -70 -11 -14 -20 -32 -20 -41 0 -19 -20
-29 -56 -29 -17 0 -24 6 -24 20 0 11 -4 20 -8 20 -4 0 -14 -9 -22 -20 -24 -33
-48 -26 -48 15 0 23 5 35 14 35 8 0 14 8 13 18 0 10 -3 12 -6 5 -10 -26 -33
-13 -33 17 0 24 4 30 23 30 12 0 31 11 42 25 23 27 45 32 45 10z m420 -25 c17
-17 35 -30 40 -30 6 0 10 -7 10 -15 0 -8 -4 -15 -9 -15 -5 0 -7 -9 -4 -20 4
-14 0 -20 -11 -20 -9 0 -19 -7 -22 -15 -13 -33 -59 -8 -66 36 -2 20 -8 23 -30
21 -20 -2 -28 2 -28 13 0 8 4 15 9 15 5 0 7 9 4 20 -4 14 0 20 11 20 9 0 16 7
16 16 0 24 43 10 80 -26z m-674 16 c17 -17 18 -36 3 -36 -5 0 -7 -4 -4 -10 10
-17 25 -11 25 10 0 12 7 20 16 20 9 0 18 -9 21 -20 3 -11 9 -20 14 -20 5 0 7
11 3 25 -7 26 -3 28 34 19 18 -5 22 -13 22 -50 0 -31 -4 -44 -14 -44 -8 0 -16
5 -18 11 -2 6 -10 -2 -18 -18 -26 -49 -55 -58 -70 -20 -7 18 -9 19 -9 3 -1
-14 -6 -17 -23 -11 -61 18 -68 18 -68 -4 0 -14 -6 -21 -20 -21 -22 0 -29 39
-7 41 10 0 10 2 0 6 -20 8 -15 33 6 33 32 0 51 11 51 30 0 13 -5 17 -20 13
-14 -4 -20 0 -20 11 0 9 7 16 15 16 9 0 18 7 21 15 8 19 41 19 60 1z m330
-223 c7 -25 8 -25 21 -7 10 14 27 19 71 20 31 1 69 5 85 9 19 5 27 4 27 -6 0
-7 7 -20 15 -29 8 -9 18 -31 21 -48 5 -27 4 -32 -12 -32 -13 0 -25 14 -36 40
-9 22 -23 40 -32 40 -13 0 -13 -3 0 -27 7 -16 14 -33 14 -39 0 -17 -43 -31
-102 -33 -23 -1 -28 -6 -28 -26 0 -16 -6 -25 -15 -25 -8 0 -15 9 -15 20 0 13
-7 20 -19 20 -35 0 -51 12 -52 39 -2 23 -2 24 -6 4 -7 -34 -33 -29 -33 6 0 16
-3 43 -6 60 -5 24 -3 31 10 31 10 0 16 -8 16 -21 0 -18 2 -19 15 -5 8 8 15 19
15 25 0 6 9 11 20 11 13 0 22 -9 26 -27z m-2196 3 c0 -17 29 -28 76 -28 19 0
34 -4 34 -9 0 -5 11 -9 25 -9 27 0 28 -3 19 -37 -4 -15 -17 -23 -42 -28 -21
-4 -31 -10 -24 -12 6 -3 12 -13 12 -24 0 -22 -35 -27 -43 -6 -4 9 -7 9 -15 -1
-14 -20 -66 -20 -70 1 -2 11 3 17 15 18 17 1 17 2 0 6 -15 4 -17 15 -16 74 1
51 5 69 15 69 8 0 14 -6 14 -14z m-3843 -239 c1 -20 -2 -37 -7 -37 -6 0 -10
-11 -10 -25 0 -16 -6 -25 -15 -25 -8 0 -15 5 -15 10 0 6 -6 10 -14 10 -7 0
-19 13 -26 30 -7 16 -16 27 -21 24 -12 -7 -11 -34 1 -34 21 0 50 -41 50 -70 0
-35 -27 -42 -32 -8 -3 20 -4 21 -20 5 -13 -13 -26 -16 -57 -11 -48 8 -54 30
-11 39 23 5 30 12 30 31 0 15 -6 24 -15 24 -8 0 -15 7 -15 15 0 8 7 15 15 15
8 0 15 7 15 15 0 9 9 15 25 15 14 0 25 -4 25 -10 0 -5 6 -10 14 -10 8 0 16 -6
19 -12 5 -13 8 -7 22 38 3 8 13 14 22 12 13 -2 19 -14 20 -41z m53 -2 c0 -29
3 -30 31 -12 17 10 22 9 33 -5 15 -20 26 -14 26 14 0 10 5 18 11 18 14 0 39
-26 39 -40 0 -9 13 -10 45 -6 29 5 45 4 45 -3 0 -6 11 -11 25 -11 15 0 25 -6
25 -14 0 -10 -19 -16 -65 -21 -36 -4 -67 -10 -69 -14 -3 -5 -123 -6 -158 -2
-12 1 -9 41 2 41 6 0 10 5 10 10 0 6 -7 10 -15 10 -8 0 -15 3 -15 8 0 4 -3 17
-6 30 -5 18 -2 22 15 22 16 0 21 -6 21 -25z m5100 -91 c0 -12 4 -14 13 -7 14
11 94 10 120 -1 21 -10 24 -66 3 -66 -8 0 -16 -6 -18 -12 -3 -8 -25 -13 -55
-14 -46 -2 -52 0 -57 21 -4 16 -16 26 -36 30 -21 5 -30 13 -30 26 0 10 7 19
15 19 8 0 15 5 15 10 0 6 7 10 15 10 8 0 15 -7 15 -16z m-96 -21 c0 -13 5 -23
13 -23 7 0 13 -4 13 -9 0 -5 9 -13 21 -16 38 -12 4 -85 -40 -85 -16 0 -21 7
-22 28 0 15 -3 21 -6 15 -7 -18 -50 -16 -57 3 -11 28 -6 44 12 45 10 0 12 3 5
6 -7 2 -13 18 -13 34 0 29 2 30 38 27 31 -3 37 -7 36 -25z m-12043 -869 c5 -3
9 -1 9 4 0 5 20 10 45 10 33 1 45 -3 45 -13 0 -8 -4 -15 -9 -15 -4 0 -6 -11
-3 -25 3 -18 0 -25 -11 -25 -9 0 -17 8 -19 17 -3 16 -4 16 -20 0 -18 -19 -38
-22 -38 -7 0 19 -28 10 -33 -10 -6 -24 -42 -27 -55 -4 -9 16 -11 16 -33 0 -30
-20 -65 -21 -73 0 -11 28 -6 42 14 49 11 3 20 12 20 20 0 10 17 12 76 9 42 -2
80 -6 85 -10z m1507 -352 c-6 -23 15 -42 46 -42 26 0 96 -36 96 -50 0 -24 -15
-40 -36 -40 -13 0 -24 5 -24 10 0 17 -29 11 -47 -10 -20 -22 -43 -27 -43 -7 0
7 -10 17 -22 22 -13 6 -24 20 -26 33 -3 18 1 22 25 22 l28 1 -27 15 c-31 16
-37 50 -10 57 35 9 44 7 40 -11z m-2748 -47 c0 -11 14 -15 58 -16 31 -1 65 -1
75 0 12 2 17 -5 17 -23 0 -19 -5 -26 -19 -26 -11 0 -23 -4 -26 -10 -3 -5 -18
-10 -33 -10 -45 0 -70 -11 -75 -31 -5 -19 -37 -27 -37 -9 0 21 -28 9 -34 -15
-5 -21 -12 -25 -42 -25 -38 0 -40 3 -48 73 -4 36 -2 47 8 47 8 0 16 6 19 13 3
9 9 9 23 1 26 -15 84 3 84 28 0 10 7 18 15 18 8 0 15 -7 15 -15z m960 -585 c0
-5 9 -10 21 -10 33 0 22 -51 -16 -69 -16 -8 -34 -20 -38 -28 -11 -17 -37 -17
-37 2 0 30 -54 38 -86 14 -6 -5 -25 -6 -43 -3 -24 5 -31 12 -31 30 0 13 5 24
10 24 6 0 10 9 10 20 0 24 25 26 38 3 6 -10 21 -16 41 -15 37 1 101 23 101 34
0 4 7 8 15 8 8 0 15 -4 15 -10z"/>
<path d="M1200 5270 c0 -16 -5 -30 -11 -30 -6 0 -1 -13 10 -29 12 -16 21 -34
21 -40 0 -6 8 -25 18 -43 11 -18 22 -50 26 -70 4 -21 11 -38 16 -38 6 0 10 -7
10 -15 0 -8 5 -15 10 -15 6 0 10 -12 10 -27 0 -16 11 -50 25 -78 13 -27 25
-55 25 -61 0 -15 50 -102 50 -88 0 5 9 20 20 32 l21 22 -21 0 c-22 0 -29 35
-8 42 8 3 0 17 -20 39 -17 19 -32 39 -32 45 0 7 -9 14 -20 17 -15 4 -20 14
-20 41 0 20 -4 36 -10 36 -5 0 -10 7 -10 15 0 8 -9 24 -20 35 -11 11 -20 31
-20 44 0 13 -11 40 -25 60 -31 46 -33 82 -4 91 l21 7 -21 19 c-29 27 -41 24
-41 -11z"/>
<path d="M23227 3172 c-2 -4 -10 -28 -17 -54 -12 -45 -14 -47 -61 -58 -36 -9
-53 -9 -63 -1 -15 13 -26 5 -26 -21 0 -10 -4 -18 -10 -18 -5 0 -10 -4 -10 -9
0 -5 18 -11 41 -15 36 -6 44 -3 65 19 29 31 52 32 64 3 5 -13 9 -17 9 -10 1 6
13 12 27 12 19 0 24 4 20 18 -3 9 -7 43 -8 74 -2 34 -8 60 -15 62 -7 3 -14 2
-16 -2z"/>
<path d="M492 3034 c-7 -8 -8 -14 -2 -14 5 0 10 -7 10 -15 0 -8 -7 -15 -15
-15 -8 0 -15 7 -15 15 0 9 -9 15 -25 15 -14 0 -25 5 -25 10 0 6 -4 10 -10 10
-5 0 -10 -8 -10 -19 0 -11 -9 -21 -22 -25 l-23 -6 21 -14 c13 -9 24 -31 28
-56 5 -29 11 -40 24 -40 10 0 28 -9 40 -20 12 -12 22 -19 23 -18 0 2 2 34 3
72 2 37 8 71 14 75 7 4 9 17 4 33 -6 22 -9 24 -20 12z"/>
<path d="M15814 2970 c-4 -22 -10 -40 -15 -40 -5 0 -9 -16 -9 -35 0 -22 -6
-38 -15 -41 -8 -4 -15 -15 -15 -25 0 -11 -7 -19 -16 -19 -12 0 -15 7 -11 26 3
16 0 28 -9 31 -16 6 -19 39 -4 48 8 5 7 11 -1 21 -19 23 -30 16 -28 -18 2 -18
2 -50 1 -71 -2 -37 -2 -38 -36 -32 -31 6 -34 5 -40 -26 -3 -18 -3 -35 1 -38 5
-3 15 -19 23 -36 8 -16 19 -33 24 -36 11 -9 46 21 46 39 0 18 55 6 93 -20 15
-11 27 -15 27 -9 0 5 13 12 30 16 26 6 28 8 16 21 -8 8 -22 14 -31 14 -23 0
-39 43 -31 84 8 40 36 51 36 14 0 -43 12 -68 31 -68 11 0 19 7 19 15 0 8 -9
15 -20 15 -15 0 -20 7 -20 25 0 19 5 25 23 25 20 1 20 2 5 11 -10 5 -18 19
-18 29 0 11 -7 20 -15 20 -24 0 -17 28 8 33 l22 4 -22 2 c-19 1 -23 7 -23 31
0 44 -19 37 -26 -10z"/>
<path d="M22920 2889 c0 -12 -6 -30 -14 -38 -7 -9 -16 -28 -20 -43 -5 -21 -2
-30 14 -38 22 -12 29 -73 10 -85 -14 -9 -13 -51 3 -76 10 -17 10 -23 0 -26
-19 -7 -16 -26 6 -45 26 -22 31 -14 31 43 0 26 5 51 10 54 16 10 12 23 -10 30
-23 7 -27 35 -5 35 21 0 37 66 33 140 -3 63 -4 65 -30 68 -23 3 -28 -1 -28
-19z"/>
<path d="M16650 2862 c0 -12 -6 -22 -13 -22 -9 0 -12 -11 -9 -35 3 -26 0 -35
-11 -35 -18 0 -11 -39 9 -55 7 -5 14 -19 17 -30 4 -17 5 -17 6 4 1 18 5 22 21
18 15 -4 20 0 20 14 0 10 7 19 15 19 8 0 15 5 15 10 0 6 9 10 20 10 11 0 20
-7 20 -15 0 -8 -5 -15 -11 -15 -5 0 -7 -5 -3 -11 4 -7 9 -7 13 -2 3 5 15 13
26 17 12 4 15 10 8 14 -6 4 -14 22 -17 39 -6 28 -14 35 -49 45 -23 7 -50 21
-59 32 -18 19 -18 19 -18 -2z"/>
<path d="M16182 2753 c-1 -7 -8 -13 -16 -13 -8 0 -16 -10 -18 -22 -2 -13 -13
-27 -25 -33 -24 -10 -31 -25 -13 -25 16 0 12 -40 -5 -46 -8 -4 -22 -1 -30 6
-9 7 -15 8 -15 2 0 -5 7 -12 15 -16 19 -7 20 -56 1 -56 -8 0 -17 8 -19 18 -4
16 -5 16 -6 0 0 -10 -8 -18 -16 -18 -8 0 -15 8 -16 18 0 10 -3 12 -6 5 -2 -7
-13 -13 -24 -13 -24 0 -26 35 -1 49 13 8 8 10 -25 11 -25 0 -43 -5 -43 -11 0
-7 -10 -9 -25 -7 -21 4 -25 1 -25 -18 0 -27 17 -32 26 -9 4 8 17 15 30 15 15
0 24 -6 24 -15 0 -8 -5 -15 -11 -15 -6 0 -17 -7 -25 -15 -21 -20 -54 -19 -54
2 0 12 -3 14 -10 7 -17 -17 0 -42 33 -50 17 -3 37 -13 45 -20 12 -12 16 -11
31 7 23 28 91 39 166 27 41 -6 61 -6 63 1 4 13 49 15 56 2 10 -15 45 0 52 22
13 40 54 64 54 32 0 -8 -5 -15 -11 -15 -6 0 -9 -6 -6 -12 3 -12 51 -13 69 -2
11 7 -3 34 -18 34 -8 0 -14 7 -14 15 0 15 -7 17 -74 19 -29 1 -40 -3 -44 -16
-2 -10 -11 -18 -19 -18 -8 0 -13 8 -12 18 3 33 -1 42 -20 42 -23 0 -39 39 -21
50 6 4 10 21 7 41 -2 19 -5 28 -5 22z"/>
<path d="M15127 2565 c5 -31 3 -35 -17 -35 -18 0 -21 4 -18 25 4 21 3 23 -13
14 -11 -5 -19 -15 -19 -20 0 -7 -11 -9 -27 -5 -25 6 -26 5 -10 -7 9 -8 17 -19
17 -25 0 -28 150 -57 165 -32 9 14 127 1 137 -14 4 -6 8 1 8 17 0 30 14 35 37
11 12 -12 18 -13 24 -3 6 10 13 10 34 1 14 -7 48 -12 75 -12 43 0 50 3 50 19
0 11 5 23 11 27 17 10 -10 24 -48 24 -23 0 -33 -5 -33 -15 0 -8 -9 -15 -20
-15 -15 0 -20 7 -20 25 0 30 -9 31 -43 5 -32 -26 -41 -25 -56 4 -16 29 -49 24
-57 -10 -6 -25 -33 -34 -35 -11 0 6 -5 2 -11 -10 -13 -28 -53 -31 -67 -5 -10
16 -10 16 -11 -1 0 -12 -6 -17 -17 -15 -14 2 -19 15 -21 51 -2 26 -7 47 -12
47 -5 0 -6 -16 -3 -35z"/>
<path d="M14190 2115 c0 -14 -5 -25 -10 -25 -7 0 -8 -13 -4 -36 6 -32 4 -36
-12 -32 -12 2 -20 13 -22 29 -3 22 -7 25 -32 21 -22 -3 -30 0 -30 11 0 26 -28
35 -114 37 -24 1 -47 -20 -28 -27 6 -3 12 -11 12 -19 0 -8 7 -26 16 -39 22
-34 1 -84 -38 -92 -16 -3 -28 -9 -28 -13 0 -5 17 -3 37 3 28 9 37 9 41 -1 4
-12 82 -6 92 8 8 11 100 31 111 25 16 -11 69 6 69 21 0 8 -4 14 -9 14 -4 0
-12 32 -15 70 -5 51 -11 70 -22 70 -8 0 -14 -10 -14 -25z"/>
<path d="M13467 2080 c5 -25 -23 -53 -46 -45 -12 3 -21 11 -21 16 0 5 -9 9
-20 9 -11 0 -20 -7 -20 -15 0 -8 -9 -15 -20 -15 -15 0 -20 7 -21 28 -1 31 -5
22 -14 -30 -6 -37 -35 -56 -35 -23 0 8 -4 15 -10 15 -5 0 -10 11 -10 24 0 19
-5 23 -30 22 -17 -1 -30 -7 -30 -13 0 -7 -6 -13 -14 -13 -8 0 -18 -9 -21 -20
-9 -29 -39 -27 -31 3 3 12 6 25 6 30 0 4 7 7 15 7 8 0 15 5 15 11 0 7 -9 9
-22 5 -13 -3 -41 -6 -63 -6 -41 -1 -91 -28 -67 -37 6 -3 12 -11 12 -19 0 -8 7
-14 16 -14 12 0 15 -6 10 -22 -3 -13 -6 -26 -6 -30 0 -5 -13 -8 -30 -8 l-30 0
22 -22 c20 -20 22 -20 35 -3 7 11 13 25 13 32 0 9 15 13 50 13 38 0 50 -4 50
-15 0 -9 -10 -15 -22 -16 -13 0 -17 -3 -10 -6 17 -7 15 -43 -2 -43 -8 0 -17 6
-19 13 -4 7 -6 6 -6 -4 -1 -12 11 -18 38 -23 22 -3 41 -10 43 -14 1 -5 15 -12
30 -16 21 -5 33 -1 49 15 13 13 36 22 58 23 20 1 41 4 46 8 6 3 31 9 58 12 26
4 45 11 42 16 -3 5 -3 27 1 49 6 37 9 41 35 41 16 0 29 5 29 10 0 6 -4 10 -10
10 -5 0 -10 7 -10 15 0 20 44 20 64 0 14 -14 17 -14 36 5 11 11 20 25 20 30 0
6 10 15 23 20 15 7 -8 9 -79 7 -84 -2 -100 -5 -97 -17z"/>
<path d="M12865 2040 c-27 -4 -62 -5 -78 -2 -20 3 -33 -1 -46 -17 -23 -26 -41
-27 -41 -1 0 11 -7 20 -15 20 -8 0 -15 -7 -15 -16 0 -11 -6 -15 -20 -11 -11 3
-23 1 -26 -4 -3 -5 -27 -9 -55 -9 -27 0 -49 -4 -49 -10 0 -5 -7 -10 -15 -10
-8 0 -15 3 -15 8 0 4 -15 8 -32 9 -18 1 -61 3 -95 6 -49 3 -64 0 -76 -13 -22
-26 -8 -37 56 -42 43 -4 57 -1 57 9 0 7 7 13 15 13 18 0 33 -32 18 -37 -6 -2
-9 -13 -6 -23 4 -14 0 -20 -11 -20 -9 0 -16 4 -16 9 0 14 -68 23 -88 12 -9 -6
-11 -11 -4 -11 15 0 16 -57 0 -62 -7 -3 -9 -14 -3 -34 4 -16 10 -23 12 -16 3
6 11 12 19 12 8 0 14 7 14 16 0 12 7 15 28 12 17 -2 35 3 46 13 22 21 69 34
74 20 5 -14 32 -2 32 15 0 8 7 14 15 14 8 0 15 -7 15 -15 0 -8 5 -15 10 -15 6
0 10 7 10 15 0 8 9 15 20 15 11 0 20 -4 20 -10 0 -5 7 -10 15 -10 8 0 15 -6
15 -12 0 -8 13 -13 30 -13 17 0 30 5 30 10 1 28 17 35 63 26 27 -5 47 -5 47 0
0 5 16 9 35 9 26 0 35 -4 36 -17 0 -11 3 -13 6 -5 6 17 33 15 33 -2 0 -23 28
-26 52 -6 19 16 20 19 6 20 -12 0 -18 8 -19 23 -1 16 -2 18 -6 5 -5 -22 -33
-24 -33 -3 0 12 -7 14 -27 9 -25 -7 -26 -6 -20 26 4 18 7 38 7 46 0 8 16 14
43 17 35 3 38 5 20 11 -13 5 -23 15 -23 22 0 8 -3 13 -7 13 -5 -1 -30 -5 -58
-9z"/>
<path d="M10095 1910 c-3 -5 -1 -10 6 -10 7 0 9 -10 7 -25 -3 -14 1 -30 8 -36
8 -6 14 -17 14 -23 0 -16 -58 -36 -103 -36 -33 0 -37 -3 -37 -24 0 -14 5 -28
10 -31 6 -3 10 -1 10 4 0 6 7 11 15 11 8 0 15 -8 15 -17 1 -17 1 -17 11 0 5 9
19 17 29 17 16 0 20 -7 20 -35 0 -19 5 -35 11 -35 7 0 9 9 5 23 -10 39 32 103
46 68 2 -5 35 2 73 15 83 28 95 29 95 9 0 -8 -6 -15 -13 -15 -7 0 -21 -6 -31
-13 -17 -12 -17 -15 -2 -29 24 -24 20 -48 -7 -48 -32 0 -38 -9 -25 -33 9 -17
12 -18 22 -6 29 38 116 59 116 28 0 -5 9 -9 20 -9 15 0 20 7 20 25 0 16 6 25
15 25 11 0 14 7 9 25 -11 42 24 31 43 -15 13 -29 24 -40 40 -40 12 0 23 -5 25
-12 2 -6 12 -9 21 -5 12 4 17 18 17 47 0 35 4 42 28 52 15 7 34 18 42 25 24
19 90 5 100 -21 8 -20 9 -20 11 -1 1 11 1 33 0 48 -2 27 -1 28 36 25 32 -3 38
-6 37 -26 0 -16 4 -21 13 -17 8 3 26 5 39 5 15 0 24 6 24 15 0 8 7 15 15 15 8
0 15 -5 15 -10 0 -7 6 -7 19 0 27 14 71 13 72 -2 0 -7 4 -4 9 7 13 29 12 35
-5 35 -8 0 -15 4 -15 8 0 4 -16 6 -35 4 -21 -3 -35 -10 -35 -18 0 -8 -7 -14
-15 -14 -8 0 -15 8 -15 17 0 13 -3 14 -12 5 -17 -17 -48 -15 -48 3 0 15 -31
21 -44 8 -3 -4 -53 -8 -109 -10 -107 -3 -217 -21 -217 -36 0 -9 -25 -37 -34
-37 -3 0 -15 9 -26 20 -18 18 -46 25 -90 22 -8 0 -44 -3 -78 -6 -71 -6 -97 8
-104 54 -2 21 -8 24 -30 22 -16 -1 -28 2 -28 8 0 13 -17 13 -25 0z"/>
<path d="M9880 1772 c-14 -2 -27 -8 -30 -12 -3 -5 -22 -11 -43 -15 -30 -6 -37
-4 -37 9 0 13 -11 16 -54 16 -30 0 -58 -4 -61 -10 -3 -5 -14 -10 -24 -10 -10
0 -21 -9 -24 -20 -3 -14 -14 -20 -31 -20 -14 0 -26 5 -26 10 0 6 -7 10 -15 10
-8 0 -15 5 -15 10 0 11 -39 13 -64 4 -9 -3 -16 -12 -16 -20 0 -8 -7 -14 -15
-14 -8 0 -15 4 -15 8 0 10 -138 8 -147 -2 -4 -3 -14 -6 -23 -6 -9 0 -23 -11
-30 -25 -14 -26 -34 -33 -45 -15 -14 22 -150 45 -162 27 -2 -4 -27 -5 -54 -1
-36 5 -49 3 -49 -6 0 -9 -9 -11 -30 -6 -22 4 -30 2 -30 -9 0 -18 -26 -20 -33
-2 -4 7 -6 6 -6 -4 -1 -19 19 -29 54 -29 13 0 26 -6 28 -12 4 -10 6 -10 6 0 2
32 61 -7 61 -41 0 -9 5 -17 10 -17 6 0 10 5 10 10 0 6 7 10 15 10 8 0 15 -9
15 -20 0 -11 7 -20 15 -20 8 0 15 -4 15 -10 0 -5 9 -10 20 -10 11 0 20 7 20
15 0 25 46 41 81 28 17 -7 36 -10 43 -7 7 3 25 0 39 -5 28 -11 57 -5 57 10 0
5 -24 9 -54 9 -47 0 -54 3 -60 23 -3 12 -6 25 -6 29 0 4 26 9 58 13 31 3 69 9
85 11 20 4 27 2 27 -10 0 -9 -6 -16 -14 -16 -11 0 -13 -10 -9 -42 5 -40 23
-79 23 -50 0 16 37 15 43 0 3 -7 6 -1 6 14 1 42 71 82 71 41 0 -34 18 -47 74
-53 39 -4 57 -2 60 6 3 7 35 15 73 19 92 10 134 33 125 67 -6 25 25 23 33 -2
4 -13 15 -20 31 -20 25 0 32 14 13 26 -6 3 -9 19 -5 35 3 16 1 29 -4 29 -6 0
-10 7 -10 15 0 8 7 15 15 15 8 0 15 -4 15 -9 0 -5 9 -11 20 -14 16 -4 20 0 20
18 0 16 7 25 21 27 19 3 18 4 -7 13 -16 6 -40 9 -54 7z"/>
<path d="M8440 1740 c-8 -11 -25 -20 -37 -20 -14 0 -23 -6 -23 -15 0 -16 -14
-18 -45 -6 -13 5 -29 2 -45 -8 -36 -22 -75 -61 -61 -61 20 0 11 -28 -11 -35
-14 -4 -18 -8 -10 -12 17 -7 15 -33 -3 -33 -8 0 -15 8 -15 17 0 9 -3 14 -6 10
-9 -9 -13 -86 -5 -91 16 -10 51 7 51 25 0 11 5 19 10 19 6 0 10 9 10 19 0 11
6 22 13 24 10 4 10 6 0 6 -7 1 -13 7 -13 15 0 13 41 26 86 26 33 0 30 -26 -3
-33 -44 -10 -56 -22 -49 -50 3 -15 15 -27 31 -31 24 -6 36 -36 15 -36 -5 0
-10 -6 -10 -14 0 -8 -6 -16 -12 -18 -8 -3 -4 -9 10 -17 12 -6 22 -8 22 -3 0 6
10 12 23 16 14 4 18 9 10 14 -16 10 -28 62 -14 62 6 0 11 7 11 15 0 16 30 35
56 35 12 0 15 -6 12 -25 -4 -19 -1 -25 13 -25 11 0 19 -6 19 -14 0 -16 -34
-31 -50 -21 -18 11 -31 -5 -16 -21 26 -25 118 -13 151 20 9 9 27 16 41 16 13
0 33 9 44 20 24 24 25 30 5 30 -9 0 -15 9 -15 21 0 16 5 20 19 16 13 -3 21 1
24 14 6 23 42 25 54 4 8 -13 13 -12 33 7 l25 23 -28 3 c-31 4 -38 32 -7 32 11
0 20 7 20 15 0 8 5 15 12 15 6 0 8 3 5 6 -4 4 -13 1 -21 -6 -9 -6 -30 -14 -48
-16 -18 -2 -43 -6 -56 -10 -18 -5 -24 -2 -29 15 -7 27 -29 27 -36 1 -3 -14
-14 -20 -31 -20 -14 0 -26 5 -26 11 0 12 -25 39 -37 39 -5 0 -13 10 -18 22
-14 29 -28 32 -45 8z"/>
<path d="M8007 1568 c-15 -17 -35 -48 -44 -69 -8 -22 -19 -39 -24 -39 -5 0 -6
-7 -3 -15 4 -8 12 -15 19 -15 7 0 15 -10 19 -22 l6 -23 16 23 c12 17 24 23 48
21 42 -4 54 5 49 36 -4 19 3 32 27 55 29 27 30 30 11 30 -14 0 -21 6 -21 20 0
11 -4 20 -10 20 -5 0 -10 -7 -10 -15 0 -8 -7 -15 -15 -15 -8 0 -15 9 -15 20 0
28 -20 23 -53 -12z"/>
<path d="M7771 1553 c-28 -14 -36 -14 -54 -3 -15 9 -22 10 -25 1 -5 -14 -35
-14 -48 -1 -7 7 -9 1 -6 -20 5 -34 -15 -41 -42 -15 -17 18 -36 20 -36 4 0 -7
-10 -9 -25 -7 -14 3 -25 4 -25 2 0 -2 11 -14 25 -28 14 -14 25 -37 25 -51 0
-20 -5 -25 -25 -25 -22 0 -25 4 -25 35 0 33 -14 48 -22 24 -3 -8 -15 -9 -37
-4 -27 6 -32 11 -29 29 4 18 -1 21 -34 23 -21 0 -38 -3 -38 -8 0 -12 -27 -12
-32 1 -5 14 -83 -9 -107 -32 -15 -13 -28 -17 -44 -12 -48 16 -157 4 -157 -17
0 -5 -7 -9 -15 -9 -8 0 -15 -4 -15 -9 0 -5 8 -7 18 -4 10 2 24 -2 31 -11 7 -8
19 -12 27 -9 8 3 23 -5 34 -18 16 -20 19 -21 20 -6 0 9 6 17 14 17 16 0 29
-41 20 -64 -4 -11 -1 -16 10 -16 9 0 16 -3 16 -7 0 -5 31 -8 70 -8 58 0 72 -3
84 -20 14 -18 16 -19 28 -4 15 20 83 43 98 34 6 -3 13 1 16 10 4 9 16 15 28
14 37 -2 46 1 46 16 0 8 7 15 15 15 8 0 15 -8 15 -17 0 -14 2 -15 9 -4 6 10
16 11 37 4 31 -10 74 4 74 25 0 20 37 14 43 -7 4 -18 9 -19 43 -10 47 13 50
16 59 57 6 31 5 32 -24 32 -29 0 -31 3 -31 35 0 19 3 35 8 35 4 0 21 11 37 25
l30 24 -25 0 c-14 0 -40 -7 -59 -16z"/>
<path d="M6760 1443 c-14 -3 -29 -9 -34 -14 -6 -5 -17 -9 -26 -9 -8 0 -22 -9
-30 -20 -15 -20 -40 -27 -40 -11 0 5 -20 5 -45 0 -24 -4 -61 -7 -82 -5 -24 2
-42 -2 -48 -11 -11 -14 -75 -8 -75 8 0 5 -7 6 -15 3 -8 -4 -22 -1 -30 6 -10 8
-19 9 -32 1 -10 -6 -12 -11 -5 -11 19 0 14 -38 -5 -43 -17 -4 -17 -5 -1 -6 10
0 31 -15 48 -32 l30 -32 0 27 c0 19 5 26 20 26 11 0 20 -4 20 -10 0 -22 30 -8
36 16 5 20 11 24 28 20 11 -3 29 -6 39 -6 10 0 17 -8 17 -20 0 -11 5 -20 10
-20 6 0 10 -13 10 -28 0 -26 3 -28 30 -24 35 5 37 12 10 32 -11 8 -20 22 -20
32 0 14 8 18 36 18 33 0 36 -2 32 -24 -3 -15 0 -27 8 -30 8 -3 14 -13 14 -22
0 -11 5 -14 16 -10 9 3 24 6 35 6 16 0 18 5 13 28 -4 15 -18 40 -31 55 -12 16
-23 35 -23 43 0 22 53 18 67 -5 7 -11 22 -21 35 -23 29 -4 38 -38 10 -38 -11
0 -22 -9 -25 -20 -6 -22 8 -37 18 -20 3 5 17 10 31 10 13 0 24 4 24 9 0 5 8
12 18 14 16 4 16 5 0 6 -22 1 -23 27 -4 47 10 9 25 12 45 8 26 -6 31 -11 31
-35 0 -20 -5 -29 -17 -29 -9 0 -14 -2 -11 -5 3 -3 19 -2 36 1 34 7 45 40 17
50 -19 8 -20 34 -1 34 8 0 16 7 20 15 3 10 -1 15 -14 15 -10 0 -25 9 -33 21
-11 15 -16 17 -20 7 -3 -10 -8 -11 -26 0 -20 12 -61 14 -111 5z"/>
<path d="M5955 1333 c-33 -7 -85 -17 -115 -23 -72 -15 -93 -27 -62 -36 12 -3
22 -13 22 -20 0 -8 7 -14 15 -14 8 0 15 4 15 9 0 5 8 12 18 14 16 4 16 5 0 6
-22 1 -24 31 -3 31 8 0 15 -4 15 -10 0 -5 15 -12 34 -16 19 -3 37 -12 40 -20
7 -18 26 -18 26 0 0 9 16 17 41 21 30 5 43 13 49 31 8 19 17 24 44 24 25 0 36
-5 38 -17 2 -11 6 -14 10 -8 23 37 -73 52 -187 28z"/>
<path d="M5470 1250 c0 -6 -10 -10 -22 -8 -49 5 -158 -14 -158 -28 0 -8 9 -14
20 -14 15 0 20 -7 20 -26 0 -39 33 -64 76 -57 22 4 34 2 34 -6 0 -16 37 -13
43 4 4 8 2 17 -3 20 -13 8 -13 72 0 80 6 3 10 15 10 26 0 10 -4 19 -10 19 -5
0 -10 -5 -10 -10z"/>
<path d="M1147 878 c-10 -5 -24 -7 -32 -5 -7 3 -39 -1 -70 -9 -31 -8 -64 -12
-75 -9 -10 3 -24 -1 -32 -8 -27 -28 -58 -37 -116 -35 -38 1 -67 -3 -77 -12
-12 -10 -21 -10 -41 -1 -29 13 -44 7 -44 -16 0 -11 -6 -14 -24 -9 -19 5 -26 1
-31 -15 -4 -11 -4 -23 -1 -26 3 -4 6 1 6 10 0 9 6 17 14 17 10 0 17 -15 21
-43 5 -31 13 -46 28 -52 30 -13 35 -45 8 -45 -12 0 -21 4 -21 9 0 17 -44 18
-72 2 -16 -8 -28 -21 -28 -28 0 -7 -5 -13 -10 -13 -7 0 -7 -6 0 -20 6 -11 17
-20 25 -20 7 0 15 -5 17 -12 4 -10 13 -10 45 0 51 15 103 16 103 1 0 -8 4 -8
14 0 8 7 12 21 9 32 -3 11 0 31 7 44 10 19 21 24 52 23 26 0 43 5 52 17 6 9
19 16 27 14 7 -1 22 1 32 6 32 14 42 -11 42 -100 -1 -79 1 -84 22 -88 13 -2
23 0 23 5 0 4 14 7 32 6 18 -1 33 3 36 10 2 6 13 12 25 12 20 1 20 2 5 11 -28
16 -20 109 8 109 8 0 19 12 24 26 6 15 17 25 27 23 38 -3 52 1 47 15 -3 8 -13
12 -23 9 -13 -3 -23 5 -35 28 -21 43 -20 51 9 73 29 22 31 37 7 59 -12 11 -22
13 -35 5z"/>
</g>
</svg>
